<svg xmlns="http://www.w3.org/2000/svg" xmlns:xlink="http://www.w3.org/1999/xlink" xmlns:inkscape="http://www.inkscape.org/namespaces/inkscape" version="1.1" width="167.167" height="41.8496" viewBox="0 0 167.167 41.8496">
<defs>
<clipPath id="clip_1">
<path transform="matrix(1,0,0,-1,0,41.8496)" d="M0 41.85H167.167V0H0Z"/>
</clipPath>
</defs>
<g inkscape:groupmode="layer" inkscape:label="&#xB808;&#xC774;&#xC5B4; 1">
<g clip-path="url(#clip_1)">
<path transform="matrix(1,0,0,-1,63.5962,39.7089)" d="M0 0V24.331C0 24.621-.069 24.96-.207 25.349-.346 25.736-.581 26.037-.912 26.25H1.577C2.811 26.25 3.428 25.591 3.428 24.272V0ZM-11.945 10.127V20.255C-11.945 20.644-12.175 20.837-12.635 20.837H-15.4V11.001C-15.4 10.65-15.332 10.418-15.193 10.303-15.055 10.185-14.82 10.127-14.487 10.127ZM-5.226 .522V14.114H-8.294V7.332H-16.562C-17.281 7.332-17.875 7.566-18.345 8.03-18.815 8.498-19.05 9.226-19.05 10.214V20.896C-19.05 22.137-19.409 23.049-20.128 23.632H-10.783C-9.954 23.632-9.332 23.379-8.917 22.875-8.502 22.369-8.294 21.778-8.294 21.1V16.907H-5.226V23.688C-5.226 24-5.276 24.368-5.377 24.795-5.479 25.222-5.687 25.542-6 25.756H-3.483C-2.894 25.756-2.475 25.6-2.226 25.291-1.977 24.979-1.853 24.533-1.853 23.952V.522Z" fill="#236ba7"/>
<path transform="matrix(1,0,0,-1,83.5576,29.874)" d="M0 0C.461 0 1.038 .07 1.729 .206 2.419 .34 3.042 .496 3.595 .67V14.466C3.595 14.795 3.508 15.159 3.333 15.558 3.157 15.955 2.922 16.241 2.627 16.415H5.365C6.617 16.415 7.245 15.805 7.245 14.582V-9.835H3.595V-2.036C3.3-2.153 2.972-2.26 2.613-2.356 2.254-2.454 1.894-2.531 1.535-2.589 1.176-2.646 .825-2.696 .484-2.735 .143-2.774-.157-2.793-.415-2.793H-9.925C-10.792-2.793-11.451-2.555-11.902-2.08-12.354-1.605-12.58-.756-12.58 .468V11.526C-12.58 12.011-12.668 12.491-12.842 12.967-13.018 13.442-13.298 13.826-13.686 14.117H-.469V11.323H-8.93V.874C-8.93 .525-8.861 .292-8.723 .176-8.584 .06-8.35 0-8.018 0Z" fill="#236ba7"/>
<path transform="matrix(1,0,0,-1,116.7924,28.0097)" d="M0 0V12.573C0 13.892-.618 14.551-1.853 14.551H-4.341C-4.01 14.337-3.775 14.037-3.636 13.65-3.498 13.261-3.43 12.922-3.43 12.631V0ZM-4.341-4.075C-3.88-4.075-3.649-4.268-3.649-4.657V-5.646H-17.806C-17.437-5.937-17.194-6.297-17.073-6.724-16.953-7.149-16.894-7.616-16.894-8.12V-10.392C-16.894-11.904-16.202-12.66-14.819-12.66H.524V-9.866H-12.607C-12.828-9.866-12.991-9.828-13.092-9.751-13.194-9.672-13.243-9.507-13.243-9.255V-8.208H0V-3.318C0-2.795-.125-2.354-.374-1.993-.622-1.635-1.053-1.456-1.66-1.456H-17.087V-4.075ZM-18.913 5.034C-18.913 4.317-18.676 3.695-18.207 3.172-17.736 2.648-17.116 2.385-16.341 2.385-15.511 2.385-14.865 2.648-14.405 3.172-13.945 3.695-13.714 4.317-13.714 5.034-13.714 5.733-13.945 6.354-14.405 6.897-14.865 7.439-15.511 7.711-16.341 7.711-17.116 7.711-17.736 7.439-18.207 6.897-18.676 6.354-18.913 5.733-18.913 5.034M-8.267 .087V4.104H-10.646C-10.738 3.443-10.932 2.837-11.226 2.285-11.521 1.73-11.908 1.252-12.388 .845-12.866 .437-13.441 .12-14.114-.103-14.788-.324-15.539-.437-16.367-.437-17.272-.437-18.079-.302-18.788-.029-19.498 .242-20.101 .614-20.599 1.091-21.096 1.565-21.479 2.128-21.746 2.779-22.013 3.429-22.147 4.123-22.147 4.858-22.147 6.354-21.659 7.596-20.681 8.585H-23.085V11.379H-18.221V12.631C-18.221 12.766-18.234 12.926-18.262 13.111-18.29 13.294-18.331 13.479-18.387 13.664-18.442 13.849-18.521 14.022-18.62 14.187-18.723 14.352-18.857 14.484-19.022 14.581H-16.258C-15.648 14.581-15.244 14.392-15.04 14.014-14.84 13.635-14.737 13.203-14.737 12.717V11.379H-9.897V8.585H-12.055C-11.596 8.1-11.236 7.538-10.977 6.897H-8.267V11.989C-8.267 12.301-8.317 12.669-8.419 13.096-8.521 13.522-8.729 13.843-9.042 14.057H-6.524C-5.935 14.057-5.518 13.901-5.268 13.591-5.019 13.28-4.895 12.834-4.895 12.252V.087Z" fill="#236ba7"/>
<path transform="matrix(1,0,0,-1,133.187,23.265603)" d="M0 0H3.872V7.857C3.872 8.187 3.785 8.55 3.609 8.949 3.434 9.347 3.198 9.633 2.905 9.807H5.641C6.894 9.807 7.521 9.196 7.521 7.973V-16.443H3.872V-2.794H0ZM-13.354 7.538H.8299999V4.715H-13.354ZM1.467-9.692H-13.796V-6.898H-11.225V1.687C-11.225 1.997-11.28 2.308-11.391 2.618-11.503 2.929-11.657 3.191-11.861 3.404H-9.62C-9.031 3.404-8.575 3.225-8.253 2.867-7.931 2.507-7.77 2.037-7.77 1.455V-6.898H-5.198V1.919C-5.198 2.231-5.253 2.541-5.363 2.852-5.474 3.162-5.632 3.423-5.834 3.638H-3.676C-3.086 3.638-2.608 3.458-2.238 3.099-1.87 2.739-1.687 2.269-1.687 1.687V-6.898H1.467Z" fill="#236ba7"/>
<path transform="matrix(1,0,0,-1,155.3901,14.971102)" d="M0 0C.646 0 1.105-.18 1.383-.539 1.659-.898 1.798-1.359 1.798-1.921V-2.212C1.798-3.299 2.078-4.328 2.639-5.298 3.201-6.268 3.921-7.141 4.796-7.917 5.673-8.694 6.625-9.357 7.658-9.911 8.691-10.463 9.677-10.856 10.618-11.088L9.151-13.476C8.247-13.282 7.331-12.971 6.4-12.544 5.47-12.118 4.589-11.618 3.76-11.046 2.931-10.473 2.188-9.852 1.535-9.182 .88-8.514 .386-7.858 .055-7.218-.26-7.858-.725-8.518-1.341-9.198-1.959-9.877-2.688-10.512-3.525-11.103-4.365-11.697-5.286-12.215-6.292-12.66-7.296-13.108-8.333-13.428-9.4-13.621L-10.922-10.71C-9.76-10.517-8.646-10.128-7.576-9.547-6.508-8.964-5.564-8.28-4.743-7.495-3.921-6.709-3.272-5.856-2.793-4.934-2.314-4.012-2.075-3.104-2.075-2.212V-1.98C-2.075-1.591-2.144-1.223-2.282-.874-2.419-.524-2.627-.233-2.904 0ZM-12-17.725H11.777V-20.519001H-12ZM-12-20.519" fill="#236ba7"/>
<path transform="matrix(1,0,0,-1,44.8022,9.7778019)" d="M0 0H-1.043V8.09C-1.043 8.354-1.083 8.584-1.161 8.782-1.239 8.979-1.375 9.138-1.57 9.262H-.153C.011 9.262 .16 9.208 .292 9.101 .424 8.995 .526 8.847 .597 8.657 1.019 7.54 1.442 6.433 1.868 5.34 2.293 4.247 2.718 3.146 3.139 2.035 3.615 3.243 4.09 4.446 4.562 5.643 5.034 6.838 5.51 8.045 5.986 9.262H7.498V0H6.291C6.291 1.233 6.288 2.46 6.285 3.682 6.281 4.902 6.279 6.129 6.279 7.362 5.802 6.129 5.33 4.902 4.861 3.682 4.393 2.46 3.919 1.233 3.444 0H2.612C2.174 1.167 1.739 2.327 1.306 3.478 .872 4.629 .437 5.789 0 6.956Z" fill="#236ba7"/>
<path transform="matrix(1,0,0,-1,57.5713,5.214802)" d="M0 0C-.016 .14-.045 .292-.088 .456-.131 .621-.202 .773-.298 .914-.396 1.052-.525 1.167-.686 1.258-.846 1.349-1.047 1.394-1.289 1.394-1.508 1.394-1.697 1.351-1.857 1.264-2.017 1.178-2.153 1.067-2.267 .931-2.38 .796-2.466 .646-2.525 .48-2.583 .317-2.624 .156-2.648 0ZM-2.671-.801C-2.671-1.188-2.632-1.552-2.554-1.893-2.476-2.234-2.343-2.529-2.156-2.781-1.968-3.032-1.716-3.23-1.4-3.378-1.084-3.527-.687-3.601-.21-3.601 .008-3.601 .216-3.583 .416-3.545 .615-3.508 .797-3.462 .961-3.403V-4.255C.633-4.369 .326-4.455 .041-4.514-.245-4.571-.536-4.6-.832-4.6-1.832-4.6-2.609-4.293-3.163-3.681-3.718-3.068-3.995-2.183-3.995-1.023-3.995-.521-3.929-.072-3.796 .327-3.663 .727-3.478 1.062-3.239 1.338-3.001 1.613-2.714 1.823-2.378 1.967-2.042 2.111-1.668 2.183-1.253 2.183-.738 2.183-.32 2.078 0 1.869 .32 1.658 .568 1.4 .744 1.091 .919 .783 1.041 .458 1.107 .117 1.174-.224 1.211-.53 1.218-.801Z" fill="#236ba7"/>
<path transform="matrix(1,0,0,-1,63.7456,6.2377016)" d="M0 0C0 .188-.023 .405-.071 .647-.118 .89-.195 1.12-.305 1.337-.414 1.555-.562 1.74-.75 1.892-.937 2.044-1.176 2.12-1.465 2.12-1.792 2.12-2.055 2.039-2.249 1.875-2.445 1.71-2.595 1.506-2.701 1.264-2.806 1.021-2.875 .76-2.906 .48-2.937 .201-2.952-.059-2.952-.297-2.952-.551-2.935-.821-2.9-1.104-2.864-1.388-2.794-1.651-2.689-1.894-2.583-2.136-2.434-2.335-2.238-2.491-2.042-2.647-1.785-2.726-1.465-2.726-1.168-2.726-.924-2.642-.733-2.474-.541-2.304-.391-2.101-.282-1.863-.172-1.625-.098-1.375-.059-1.117-.02-.857 0-.641 0-.469ZM.023 4.809C.023 5.064-.016 5.29-.094 5.488-.172 5.686-.309 5.845-.504 5.969H.773C.906 5.969 1.021 5.92 1.119 5.827 1.216 5.732 1.265 5.602 1.265 5.438V-3.54H-.023V-2.837C-.251-3.067-.506-3.26-.791-3.416-1.076-3.572-1.391-3.651-1.734-3.651-2.18-3.651-2.56-3.563-2.876-3.385-3.193-3.208-3.451-2.969-3.65-2.664-3.849-2.36-3.996-2.009-4.089-1.61-4.183-1.211-4.229-.793-4.229-.358-4.229 .069-4.183 .488-4.089 .9-3.996 1.311-3.849 1.677-3.65 1.998-3.451 2.317-3.197 2.578-2.888 2.775-2.58 2.972-2.207 3.07-1.77 3.07-1.372 3.07-1.018 3-.709 2.861-.4 2.721-.157 2.466 .023 2.096Z" fill="#236ba7"/>
<path transform="matrix(1,0,0,-1,68.3383,1.1689034)" d="M0 0C0-.124-.024-.237-.07-.34-.117-.442-.18-.533-.258-.611-.336-.689-.426-.751-.527-.796-.629-.842-.734-.864-.844-.864-1.062-.864-1.252-.78-1.412-.611-1.573-.442-1.652-.24-1.652 0-1.652 .238-1.573 .438-1.412 .604-1.252 .769-1.059 .851-.833 .851-.621 .851-.43 .771-.258 .617-.086 .46 0 .254 0 0M-.117-8.621H-1.347V-3.06C-1.347-2.854-1.385-2.651-1.459-2.449-1.533-2.247-1.661-2.076-1.84-1.937H-.551C-.379-1.937-.264-1.988-.206-2.091-.147-2.193-.117-2.339-.117-2.529Z" fill="#236ba7"/>
<path transform="matrix(1,0,0,-1,71.2436,.5156021)" d="M0 0C.148 0 .267-.045 .357-.136 .447-.227 .492-.363 .492-.542V-3.958H4.358V0H5.646V-9.274H4.358V-4.883H.492V-9.274H-.796V-1.172C-.796-.909-.836-.678-.914-.48-.992-.284-1.129-.125-1.324 0Z" fill="#236ba7"/>
<path transform="matrix(1,0,0,-1,82.3491,5.214802)" d="M0 0C-.015 .14-.045 .292-.088 .456-.131 .621-.201 .773-.298 .914-.396 1.052-.525 1.167-.684 1.258-.846 1.349-1.047 1.394-1.289 1.394-1.507 1.394-1.696 1.351-1.856 1.264-2.017 1.178-2.153 1.067-2.267 .931-2.379 .796-2.466 .646-2.524 .48-2.583 .317-2.624 .156-2.648 0ZM-2.671-.801C-2.671-1.188-2.632-1.552-2.553-1.893-2.476-2.234-2.344-2.529-2.155-2.781-1.967-3.032-1.716-3.23-1.4-3.378-1.084-3.527-.687-3.601-.21-3.601 .008-3.601 .217-3.583 .416-3.545 .616-3.508 .797-3.462 .961-3.403V-4.255C.633-4.369 .327-4.455 .042-4.514-.244-4.571-.534-4.6-.832-4.6-1.831-4.6-2.608-4.293-3.163-3.681-3.717-3.068-3.995-2.183-3.995-1.023-3.995-.521-3.928-.072-3.795 .327-3.662 .727-3.478 1.062-3.239 1.338-3 1.613-2.713 1.823-2.378 1.967-2.042 2.111-1.667 2.183-1.253 2.183-.738 2.183-.321 2.078 0 1.869 .321 1.658 .568 1.4 .745 1.091 .919 .783 1.041 .458 1.107 .117 1.174-.224 1.211-.53 1.219-.801Z" fill="#236ba7"/>
<path transform="matrix(1,0,0,-1,86.2031,9.7778019)" d="M0 0H-1.229V8.374C-1.229 8.637-1.269 8.868-1.347 9.065-1.424 9.262-1.562 9.423-1.757 9.545H-.48C-.331 9.545-.215 9.5-.127 9.41-.042 9.319 0 9.183 0 9.003Z" fill="#236ba7"/>
<path transform="matrix(1,0,0,-1,92.5415,6.361801)" d="M0 0C0 .215-.013 .459-.041 .733-.068 1.009-.129 1.268-.229 1.511-.325 1.753-.469 1.957-.661 2.122-.853 2.285-1.112 2.368-1.439 2.368-1.69 2.368-1.907 2.292-2.09 2.141-2.275 1.987-2.424 1.798-2.542 1.572-2.659 1.347-2.747 1.1-2.806 .833-2.865 .566-2.895 .321-2.895 .099V-.333C-2.895-.604-2.862-.865-2.8-1.116-2.736-1.366-2.646-1.587-2.525-1.775-2.403-1.965-2.256-2.117-2.084-2.231-1.913-2.347-1.717-2.405-1.5-2.405-1.234-2.405-1.006-2.332-.819-2.188-.632-2.044-.478-1.86-.358-1.634-.235-1.407-.146-1.152-.087-.863-.029-.576 0-.288 0 0M-3.373 3.244C-3.241 3.244-3.123 3.194-3.022 3.096-2.92 2.997-2.871 2.87-2.871 2.713V2.294C-2.667 2.606-2.415 2.856-2.113 3.046-1.812 3.235-1.487 3.33-1.135 3.33-.707 3.33-.337 3.238-.029 3.052 .28 2.868 .531 2.623 .726 2.319 .922 2.015 1.065 1.666 1.161 1.271 1.254 .876 1.302 .469 1.302 .05 1.302-.37 1.25-.78 1.149-1.184 1.048-1.587 .894-1.946 .686-2.262 .479-2.579 .215-2.834-.104-3.027-.424-3.22-.804-3.317-1.241-3.317-1.617-3.317-1.938-3.246-2.208-3.101-2.477-2.957-2.702-2.779-2.883-2.564V-5.203H-4.124V2.072C-4.124 2.334-4.16 2.566-4.235 2.763-4.31 2.96-4.443 3.121-4.638 3.244Z" fill="#236ba7"/>
<path transform="matrix(1,0,0,-1,98.7505,5.214802)" d="M0 0C-.015 .14-.044 .292-.088 .456-.131 .621-.202 .773-.299 .914-.396 1.052-.525 1.167-.685 1.258-.845 1.349-1.047 1.394-1.288 1.394-1.508 1.394-1.696 1.351-1.855 1.264-2.017 1.178-2.154 1.067-2.267 .931-2.379 .796-2.467 .646-2.524 .48-2.584 .317-2.625 .156-2.647 0ZM-2.671-.801C-2.671-1.188-2.632-1.552-2.554-1.893-2.476-2.234-2.344-2.529-2.155-2.781-1.967-3.032-1.716-3.23-1.399-3.378-1.084-3.527-.687-3.601-.21-3.601 .009-3.601 .217-3.583 .416-3.545 .616-3.508 .797-3.462 .961-3.403V-4.255C.635-4.369 .327-4.455 .041-4.514-.244-4.571-.534-4.6-.832-4.6-1.832-4.6-2.608-4.293-3.162-3.681-3.717-3.068-3.994-2.183-3.994-1.023-3.994-.521-3.928-.072-3.796 .327-3.662 .727-3.478 1.062-3.238 1.338-3.001 1.613-2.713 1.823-2.379 1.967-2.042 2.111-1.667 2.183-1.254 2.183-.737 2.183-.32 2.078 0 1.869 .321 1.658 .568 1.4 .745 1.091 .921 .783 1.04 .458 1.107 .117 1.175-.224 1.211-.53 1.219-.801Z" fill="#236ba7"/>
<path transform="matrix(1,0,0,-1,104.0923,4.3149034)" d="M0 0C-.46 0-.818-.152-1.07-.456-1.325-.76-1.494-1.17-1.58-1.689V-5.463H-2.822V.038C-2.822 .292-2.861 .519-2.939 .716-3.019 .914-3.155 1.074-3.349 1.197H-2.072C-1.925 1.197-1.806 1.152-1.715 1.061-1.625 .97-1.58 .834-1.58 .655V.014C-1.378 .383-1.137 .675-.86 .889-.582 1.102-.257 1.208 .117 1.208 .242 1.208 .382 1.201 .535 1.186 .687 1.167 .824 1.143 .95 1.11V-.246C.84-.179 .7-.123 .529-.073 .356-.025 .181 0 0 0" fill="#236ba7"/>
<path transform="matrix(1,0,0,-1,110.185,7.951603)" d="M0 0C0-.346-.067-.641-.198-.888-.332-1.135-.51-1.338-.732-1.5-.955-1.66-1.21-1.777-1.499-1.85-1.788-1.924-2.085-1.96-2.39-1.96-2.516-1.96-2.652-1.951-2.805-1.93-2.957-1.91-3.111-1.883-3.269-1.85-3.424-1.818-3.58-1.778-3.73-1.733-3.883-1.687-4.022-1.636-4.146-1.58L-4.135-.322C-4.018-.412-3.888-.502-3.743-.593-3.599-.684-3.447-.766-3.292-.839-3.135-.913-2.978-.973-2.816-1.018-2.657-1.063-2.498-1.085-2.344-1.085-1.897-1.085-1.584-1.004-1.399-.839-1.216-.675-1.125-.482-1.125-.26-1.125 .003-1.221 .219-1.418 .387-1.612 .557-1.835 .699-2.085 .814-2.139 .846-2.212 .883-2.303 .925-2.392 .966-2.468 1.002-2.53 1.035-2.702 1.118-2.882 1.218-3.068 1.337-3.257 1.457-3.43 1.597-3.592 1.756-3.751 1.917-3.883 2.098-3.989 2.3-4.094 2.5-4.146 2.729-4.146 2.984-4.146 3.55-3.962 4.005-3.592 4.347-3.22 4.687-2.663 4.858-1.921 4.858-1.64 4.858-1.374 4.832-1.125 4.778-.874 4.724-.628 4.652-.386 4.562V3.342C-.613 3.505-.868 3.657-1.147 3.798-1.429 3.938-1.709 4.008-1.991 4.008-2.265 4.008-2.503 3.95-2.706 3.834-2.908 3.72-3.01 3.543-3.01 3.303-3.01 3.05-2.907 2.84-2.7 2.675-2.492 2.51-2.237 2.358-1.933 2.219-1.832 2.17-1.73 2.116-1.628 2.059-1.526 2.001-1.426 1.948-1.323 1.898-1.151 1.808-.986 1.707-.826 1.597-.666 1.486-.522 1.353-.397 1.201-.273 1.049-.176 .875-.104 .678-.035 .48 0 .254 0 0" fill="#236ba7"/>
<path transform="matrix(1,0,0,-1,35.084,33.962804)" d="M0 0-17.542-7.887-35.084 0V33.963H0Z" fill="#236ba7"/>
<path transform="matrix(1,0,0,-1,1.6303,32.9062)" d="M0 0V31.275H31.824V0L15.911-7.155Z" fill="#0aa89f"/>
<path transform="matrix(1,0,0,-1,0,41.8496)" d="M1.63 21.701H33.454V28.041H1.63Z" fill="#ffffff"/>
<path transform="matrix(1,0,0,-1,0,41.8496)" d="M1.63 20.722H33.454V21.619H1.63Z" fill="#ffffff"/>
<path transform="matrix(1,0,0,-1,0,41.8496)" d="M1.63 19.74H33.454V20.549H1.63Z" fill="#ffffff"/>
<path transform="matrix(1,0,0,-1,0,41.8496)" d="M1.63 18.76H33.454V19.479H1.63Z" fill="#ffffff"/>
<path transform="matrix(1,0,0,-1,0,41.8496)" d="M1.63 17.778H33.454V18.406H1.63Z" fill="#ffffff"/>
<path transform="matrix(1,0,0,-1,0,41.8496)" d="M1.63 16.798H33.454V17.339H1.63Z" fill="#ffffff"/>
<path transform="matrix(1,0,0,-1,0,41.8496)" d="M1.63 15.818H33.454V16.267H1.63Z" fill="#ffffff"/>
<path transform="matrix(1,0,0,-1,0,41.8496)" d="M1.63 14.838H33.454V15.196H1.63Z" fill="#ffffff"/>
<path transform="matrix(1,0,0,-1,0,41.8496)" d="M1.63 13.856H33.454V14.125H1.63Z" fill="#ffffff"/>
<path transform="matrix(1,0,0,-1,0,41.8496)" d="M1.63 12.876H33.454V13.057H1.63Z" fill="#ffffff"/>
<path transform="matrix(1,0,0,-1,0,41.8496)" d="M1.63 11.896H33.454V11.986H1.63Z" fill="#ffffff"/>
<path transform="matrix(1,0,0,-1,0,41.8496)" d="M35.084 41.85H0V27.911H35.084Z" fill="#236ba7"/>
<path transform="matrix(1,0,0,-1,5.0932,15.812902)" d="M0 0 .196-.601H.828L.317-.972 .513-1.573 0-1.202-.51-1.573-.316-.972-.827-.601H-.196Z" fill="#0aa89f"/>
<path transform="matrix(1,0,0,-1,4.0346,22.681603)" d="M0 0 .196-.601H.828L.317-.972 .513-1.573 0-1.202-.512-1.573-.317-.972-.827-.601H-.197Z" fill="#0aa89f"/>
<path transform="matrix(1,0,0,-1,21.1816,16.191802)" d="M0 0 .196-.601H.827L.316-.974 .512-1.573 0-1.201-.512-1.573-.317-.974-.827-.601H-.196Z" fill="#0aa89f"/>
<path transform="matrix(1,0,0,-1,31.6777,22.681603)" d="M0 0 .196-.601H.829L.315-.972 .512-1.573 0-1.202-.511-1.573-.315-.972-.827-.601H-.194Z" fill="#0aa89f"/>
<path transform="matrix(1,0,0,-1,10.2881,18.435502)" d="M0 0H-1.219C-1.277 0-1.326 .047-1.326 .109-1.326 .167-1.277 .217-1.219 .217H0C.061 .217 .109 .167 .109 .109 .109 .047 .061 0 0 0" fill="#f3b985"/>
<path transform="matrix(1,0,0,-1,9.375,18.962302)" d="M0 0C-.02 0-.037 .004-.054 .014-.107 .043-.124 .109-.094 .162L.515 1.216C.546 1.268 .61 1.284 .663 1.255 .715 1.225 .732 1.161 .703 1.108L.092 .053C.072 .018 .036 0 0 0" fill="#f3b985"/>
<path transform="matrix(1,0,0,-1,9.9843,18.962302)" d="M0 0C-.039 0-.075 .018-.094 .053L-.704 1.108C-.733 1.161-.716 1.225-.663 1.255-.612 1.284-.545 1.268-.518 1.216L.093 .162C.123 .109 .105 .043 .054 .014 .037 .004 .017 0 0 0" fill="#f3b985"/>
<path transform="matrix(1,0,0,-1,30.2968,16.707003)" d="M0 0H-1.22C-1.279 0-1.327 .048-1.327 .108-1.327 .167-1.279 .216-1.22 .216H0C.059 .216 .108 .167 .108 .108 .108 .048 .059 0 0 0" fill="#0aa89f"/>
<path transform="matrix(1,0,0,-1,29.3818,17.235302)" d="M0 0C-.018 0-.036 .005-.053 .014-.106 .043-.123 .11-.092 .161L.516 1.216C.546 1.269 .612 1.286 .665 1.257 .715 1.227 .733 1.162 .704 1.108L.093 .054C.073 .02 .037 0 0 0" fill="#0aa89f"/>
<path transform="matrix(1,0,0,-1,29.9931,17.235302)" d="M0 0C-.04 0-.076 .02-.096 .054L-.704 1.108C-.734 1.162-.718 1.227-.664 1.257-.614 1.286-.547 1.269-.518 1.216L.092 .161C.122 .11 .104 .043 .053 .014 .035 .005 .017 0 0 0" fill="#0aa89f"/>
<path transform="matrix(1,0,0,-1,0,41.8496)" d="M18.23 21.188H16.564V27.357H18.23Z" fill="#236ba7"/>
<path transform="matrix(1,0,0,-1,0,41.8496)" d="M14.313 25.105H20.48V23.442H14.313Z" fill="#236ba7"/>
<path transform="matrix(1,0,0,-1,31.3598,34.335905)" d="M0 0C-.045 .118-.554 1.674-.587 2.473-.622 3.27-.695 3.107-.603 4.308-.508 5.508-.677 8.243-.713 8.718-.75 9.192-.818 10-1.097 10.351-1.377 10.703-1.552 11.354-1.661 11.666-1.771 11.978-1.978 12.96-2.126 13.568-2.274 14.177-2.42 14.965-2.715 15.249-3.012 15.531-3.747 15.77-3.747 15.77-3.863 16.048-4.188 16.518-4.563 16.604-4.941 16.689-6.041 17.227-6.041 17.227-6.041 17.227-6.312 17.612-6.625 17.971-6.94 18.328-7.214 18.506-7.733 18.912-8.252 19.317-8.61 19.064-8.509 18.542-8.33 17.617-7.539 16.955-7.539 16.955-7.439 16.287-6.792 15.024-6.792 15.024-6.644 14.092-6.281 12.681-6.119 12.14-5.953 11.6-6.175 10.463-6.175 10.463-6.326 9.959-6.482 9.274-6.778 9.235-7.074 9.194-7.522 9.025-7.827 9.364-8.503 10.122-9.17 10.593-9.17 10.593-10.68 11.881-12.239 11.903-12.239 11.903-12.239 11.903-12.728 11.919-12.897 11.713-12.992 11.598-13.022 11.228-12.557 10.907-12.091 10.585-11.549 10.069-11.235 9.708-10.921 9.351-10.677 9.475-10.445 8.917-10.212 8.362-9.208 7.558-8.772 6.634-8.335 5.709-7.996 5.308-7.019 4.546-7.019 4.546-5.777 3.363-5.48 2.612-5.183 1.864-5.04 .752-4.945 .695" fill="#236ba7"/>
<path transform="matrix(1,0,0,-1,31.3598,34.335905)" stroke-width="1.003" stroke-linecap="round" stroke-linejoin="round" fill="none" stroke="#236ba7" d="M0 0C-.045 .118-.554 1.674-.587 2.473-.622 3.27-.695 3.107-.603 4.308-.508 5.508-.677 8.243-.713 8.718-.75 9.192-.818 10-1.097 10.351-1.377 10.703-1.552 11.354-1.661 11.666-1.771 11.978-1.978 12.96-2.126 13.568-2.274 14.177-2.42 14.965-2.715 15.249-3.012 15.531-3.747 15.77-3.747 15.77-3.863 16.048-4.188 16.518-4.563 16.604-4.941 16.689-6.041 17.227-6.041 17.227-6.041 17.227-6.312 17.612-6.625 17.971-6.94 18.328-7.214 18.506-7.733 18.912-8.252 19.317-8.61 19.064-8.509 18.542-8.33 17.617-7.539 16.955-7.539 16.955-7.439 16.287-6.792 15.024-6.792 15.024-6.644 14.092-6.281 12.681-6.119 12.14-5.953 11.6-6.175 10.463-6.175 10.463-6.326 9.959-6.482 9.274-6.778 9.235-7.074 9.194-7.522 9.025-7.827 9.364-8.503 10.122-9.17 10.593-9.17 10.593-10.68 11.881-12.239 11.903-12.239 11.903-12.239 11.903-12.728 11.919-12.897 11.713-12.992 11.598-13.022 11.228-12.557 10.907-12.091 10.585-11.549 10.069-11.235 9.708-10.921 9.351-10.677 9.475-10.445 8.917-10.212 8.362-9.208 7.558-8.772 6.634-8.335 5.709-7.996 5.308-7.019 4.546-7.019 4.546-5.777 3.363-5.48 2.612-5.183 1.864-5.04 .752-4.945 .695"/>
<path transform="matrix(1,0,0,-1,26.4038,33.657205)" d="M0 0C-.045 .028-.088 .211-.171 .583-.257 .977-.375 1.51-.541 1.928-.832 2.668-2.063 3.841-2.075 3.852-3.054 4.617-3.398 5.026-3.833 5.947-4.071 6.453-4.479 6.919-4.839 7.335-5.139 7.68-5.399 7.979-5.505 8.232-5.646 8.564-5.786 8.649-5.948 8.745-6.056 8.808-6.168 8.876-6.293 9.019-6.597 9.363-7.138 9.887-7.611 10.212-7.907 10.416-7.99 10.628-8.01 10.768-8.03 10.897-7.993 10.998-7.956 11.045-7.782 11.256-7.303 11.244-7.282 11.244-7.269 11.243-5.699 11.206-4.203 9.925-4.197 9.923-3.527 9.449-2.858 8.698-2.611 8.424-2.268 8.491-1.99 8.545-1.932 8.557-1.876 8.567-1.824 8.574-1.577 8.606-1.426 9.132-1.294 9.594-1.274 9.66-1.255 9.727-1.236 9.79-1.236 9.799-1.017 10.925-1.179 11.456-1.343 11.989-1.706 13.408-1.852 14.34-1.886 14.403-2.499 15.615-2.601 16.268-2.671 16.329-3.401 16.977-3.569 17.861-3.619 18.113-3.561 18.316-3.418 18.405-3.259 18.502-3.02 18.445-2.765 18.247-2.653 18.159-2.553 18.082-2.46 18.009-2.124 17.754-1.903 17.586-1.656 17.303-1.361 16.967-1.102 16.602-1.072 16.562-.997 16.525 .038 16.024 .395 15.941 .777 15.855 1.102 15.386 1.222 15.105 1.307 15.078 1.971 14.853 2.253 14.583 2.509 14.337 2.653 13.718 2.781 13.17 2.804 13.077 2.825 12.983 2.847 12.895 2.896 12.694 2.95 12.459 3.006 12.209 3.121 11.713 3.239 11.202 3.312 10.994 3.332 10.938 3.353 10.872 3.376 10.8 3.483 10.47 3.646 9.968 3.873 9.685 4.163 9.318 4.229 8.454 4.261 8.041 4.297 7.554 4.465 4.818 4.372 3.629 4.307 2.794 4.323 2.613 4.351 2.319 4.362 2.188 4.377 2.035 4.387 1.794 4.419 1.001 4.929-.55 4.973-.67L4.939-.685C4.895-.564 4.385 .995 4.35 1.794 4.34 2.035 4.326 2.183 4.315 2.317 4.287 2.613 4.272 2.794 4.336 3.633 4.429 4.818 4.261 7.55 4.225 8.038 4.194 8.449 4.13 9.304 3.844 9.661 3.611 9.952 3.45 10.455 3.343 10.788 3.319 10.86 3.298 10.927 3.278 10.98 3.206 11.191 3.086 11.705 2.973 12.202 2.914 12.451 2.861 12.686 2.812 12.886 2.791 12.976 2.768 13.068 2.746 13.163 2.62 13.706 2.477 14.318 2.228 14.558 1.938 14.833 1.211 15.071 1.203 15.074L1.195 15.077 1.194 15.083C1.079 15.357 .759 15.822 .386 15.907 .014 15.992-1.046 16.509-1.091 16.531L-1.099 16.535C-1.102 16.54-1.373 16.925-1.684 17.28-1.928 17.559-2.148 17.727-2.48 17.981-2.574 18.053-2.676 18.129-2.789 18.22-3.031 18.408-3.253 18.465-3.398 18.375-3.53 18.295-3.581 18.104-3.535 17.866-3.359 16.957-2.579 16.297-2.572 16.291L-2.566 16.287-2.565 16.279C-2.468 15.621-1.827 14.367-1.82 14.354L-1.818 14.348C-1.669 13.418-1.307 12-1.146 11.465-.98 10.927-1.193 9.826-1.202 9.78-1.222 9.717-1.24 9.649-1.259 9.582-1.396 9.109-1.549 8.574-1.82 8.538-1.871 8.531-1.925 8.521-1.984 8.509-2.27 8.453-2.625 8.385-2.886 8.675-3.551 9.42-4.217 9.894-4.224 9.898-5.712 11.17-7.269 11.207-7.285 11.207-7.289 11.208-7.765 11.219-7.926 11.022-7.963 10.979-7.993 10.892-7.977 10.772-7.959 10.662-7.89 10.448-7.59 10.245-7.114 9.915-6.57 9.392-6.265 9.042-6.144 8.904-6.036 8.839-5.932 8.776-5.769 8.681-5.617 8.59-5.472 8.246-5.369 7.998-5.11 7.7-4.811 7.357-4.45 6.943-4.041 6.472-3.799 5.963-3.368 5.049-3.025 4.64-2.051 3.881-2.037 3.867-.801 2.687-.507 1.941-.342 1.52-.221 .984-.134 .594-.073 .315-.016 .053 .021 .03Z" fill="#236ba7"/>
<path transform="matrix(1,0,0,-1,26.4038,33.657205)" stroke-width="1.003" stroke-linecap="round" stroke-linejoin="round" fill="none" stroke="#236ba7" d="M0 0C-.045 .028-.088 .211-.171 .583-.257 .977-.375 1.51-.541 1.928-.832 2.668-2.063 3.841-2.075 3.852-3.054 4.617-3.398 5.026-3.833 5.947-4.071 6.453-4.479 6.919-4.839 7.335-5.139 7.68-5.399 7.979-5.505 8.232-5.646 8.564-5.786 8.649-5.948 8.745-6.056 8.808-6.168 8.876-6.293 9.019-6.597 9.363-7.138 9.887-7.611 10.212-7.907 10.416-7.99 10.628-8.01 10.768-8.03 10.897-7.993 10.998-7.956 11.045-7.782 11.256-7.303 11.244-7.282 11.244-7.269 11.243-5.699 11.206-4.203 9.925-4.197 9.923-3.527 9.449-2.858 8.698-2.611 8.424-2.268 8.491-1.99 8.545-1.932 8.557-1.876 8.567-1.824 8.574-1.577 8.606-1.426 9.132-1.294 9.594-1.274 9.66-1.255 9.727-1.236 9.79-1.236 9.799-1.017 10.925-1.179 11.456-1.343 11.989-1.706 13.408-1.852 14.34-1.886 14.403-2.499 15.615-2.601 16.268-2.671 16.329-3.401 16.977-3.569 17.861-3.619 18.113-3.561 18.316-3.418 18.405-3.259 18.502-3.02 18.445-2.765 18.247-2.653 18.159-2.553 18.082-2.46 18.009-2.124 17.754-1.903 17.586-1.656 17.303-1.361 16.967-1.102 16.602-1.072 16.562-.997 16.525 .038 16.024 .395 15.941 .777 15.855 1.102 15.386 1.222 15.105 1.307 15.078 1.971 14.853 2.253 14.583 2.509 14.337 2.653 13.718 2.781 13.17 2.804 13.077 2.825 12.983 2.847 12.895 2.896 12.694 2.95 12.459 3.006 12.209 3.121 11.713 3.239 11.202 3.312 10.994 3.332 10.938 3.353 10.872 3.376 10.8 3.483 10.47 3.646 9.968 3.873 9.685 4.163 9.318 4.229 8.454 4.261 8.041 4.297 7.554 4.465 4.818 4.372 3.629 4.307 2.794 4.323 2.613 4.351 2.319 4.362 2.188 4.377 2.035 4.387 1.794 4.419 1.001 4.929-.55 4.973-.67L4.939-.685C4.895-.564 4.385 .995 4.35 1.794 4.34 2.035 4.326 2.183 4.315 2.317 4.287 2.613 4.272 2.794 4.336 3.633 4.429 4.818 4.261 7.55 4.225 8.038 4.194 8.449 4.13 9.304 3.844 9.661 3.611 9.952 3.45 10.455 3.343 10.788 3.319 10.86 3.298 10.927 3.278 10.98 3.206 11.191 3.086 11.705 2.973 12.202 2.914 12.451 2.861 12.686 2.812 12.886 2.791 12.976 2.768 13.068 2.746 13.163 2.62 13.706 2.477 14.318 2.228 14.558 1.938 14.833 1.211 15.071 1.203 15.074L1.195 15.077 1.194 15.083C1.079 15.357 .759 15.822 .386 15.907 .014 15.992-1.046 16.509-1.091 16.531L-1.099 16.535C-1.102 16.54-1.373 16.925-1.684 17.28-1.928 17.559-2.148 17.727-2.48 17.981-2.574 18.053-2.676 18.129-2.789 18.22-3.031 18.408-3.253 18.465-3.398 18.375-3.53 18.295-3.581 18.104-3.535 17.866-3.359 16.957-2.579 16.297-2.572 16.291L-2.566 16.287-2.565 16.279C-2.468 15.621-1.827 14.367-1.82 14.354L-1.818 14.348C-1.669 13.418-1.307 12-1.146 11.465-.98 10.927-1.193 9.826-1.202 9.78-1.222 9.717-1.24 9.649-1.259 9.582-1.396 9.109-1.549 8.574-1.82 8.538-1.871 8.531-1.925 8.521-1.984 8.509-2.27 8.453-2.625 8.385-2.886 8.675-3.551 9.42-4.217 9.894-4.224 9.898-5.712 11.17-7.269 11.207-7.285 11.207-7.289 11.208-7.765 11.219-7.926 11.022-7.963 10.979-7.993 10.892-7.977 10.772-7.959 10.662-7.89 10.448-7.59 10.245-7.114 9.915-6.57 9.392-6.265 9.042-6.144 8.904-6.036 8.839-5.932 8.776-5.769 8.681-5.617 8.59-5.472 8.246-5.369 7.998-5.11 7.7-4.811 7.357-4.45 6.943-4.041 6.472-3.799 5.963-3.368 5.049-3.025 4.64-2.051 3.881-2.037 3.867-.801 2.687-.507 1.941-.342 1.52-.221 .984-.134 .594-.073 .315-.016 .053 .021 .03L0 0Z"/>
<path transform="matrix(1,0,0,-1,28.4184,22.713803)" d="M0 0C-.003 .001-.126 .243-.297 .423-.316 .444-.341 .467-.368 .495-.591 .723-1.052 1.192-1.17 1.671-1.297 2.191-1.782 3.656-1.945 4.109-2.095 4.532-3.057 5.507-3.065 5.515L-3.04 5.542C-3.001 5.501-2.063 4.552-1.911 4.123-1.748 3.668-1.262 2.201-1.134 1.679-1.02 1.21-.563 .745-.342 .522-.313 .493-.29 .467-.271 .446-.097 .265 .03 .019 .031 .015Z" fill="#236ba7"/>
<path transform="matrix(1,0,0,-1,28.4184,22.713803)" stroke-width="1.003" stroke-linecap="round" stroke-linejoin="round" fill="none" stroke="#236ba7" d="M0 0C-.003 .001-.126 .243-.297 .423-.316 .444-.341 .467-.368 .495-.591 .723-1.052 1.192-1.17 1.671-1.297 2.191-1.782 3.656-1.945 4.109-2.095 4.532-3.057 5.507-3.065 5.515L-3.04 5.542C-3.001 5.501-2.063 4.552-1.911 4.123-1.748 3.668-1.262 2.201-1.134 1.679-1.02 1.21-.563 .745-.342 .522-.313 .493-.29 .467-.271 .446-.097 .265 .03 .019 .031 .015L0 0Z"/>
<path transform="matrix(1,0,0,-1,29.4892,23.200102)" d="M0 0C.027 .277-.239 .977-.506 1.216-.754 1.438-1.122 2.351-1.383 3.075-1.581 3.619-1.802 4.385-1.804 4.394L-1.769 4.403C-1.766 4.396-1.548 3.628-1.348 3.086-1.087 2.366-.726 1.46-.482 1.241-.209 .997 .064 .28 .036-.003Z" fill="#236ba7"/>
<path transform="matrix(1,0,0,-1,29.4892,23.200102)" stroke-width="1.003" stroke-linecap="round" stroke-linejoin="round" fill="none" stroke="#236ba7" d="M0 0C.027 .277-.239 .977-.506 1.216-.754 1.438-1.122 2.351-1.383 3.075-1.581 3.619-1.802 4.385-1.804 4.394L-1.769 4.403C-1.766 4.396-1.548 3.628-1.348 3.086-1.087 2.366-.726 1.46-.482 1.241-.209 .997 .064 .28 .036-.003L0 0Z"/>
<path transform="matrix(1,0,0,-1,28.5088,23.876902)" d="M0 0C.038 .483-.048 .723-.048 .723L-.015 .736C-.012 .726 .075 .49 .035-.001Z" fill="#236ba7"/>
<path transform="matrix(1,0,0,-1,28.5088,23.876902)" stroke-width="1.003" stroke-linecap="round" stroke-linejoin="round" fill="none" stroke="#236ba7" d="M0 0C.038 .483-.048 .723-.048 .723L-.015 .736C-.012 .726 .075 .49 .035-.001L0 0Z"/>
<path transform="matrix(1,0,0,-1,24.8735,25.6874)" d="M0 0C-.748 .452-1.273 .625-1.279 .626L-1.267 .662C-1.261 .657-.732 .484 .019 .03Z" fill="#236ba7"/>
<path transform="matrix(1,0,0,-1,24.8735,25.6874)" stroke-width="1.003" stroke-linecap="round" stroke-linejoin="round" fill="none" stroke="#236ba7" d="M0 0C-.748 .452-1.273 .625-1.279 .626L-1.267 .662C-1.261 .657-.732 .484 .019 .03L0 0Z"/>
<path transform="matrix(1,0,0,-1,19.3877,23.824202)" d="M0 0-.023 .028C.145 .165 .275 .487 .292 .535 .132 1.129-.645 1.301-.652 1.302L-.645 1.337C-.636 1.335 .166 1.156 .328 .538L.331 .534 .328 .526C.323 .51 .189 .151 0 0" fill="#236ba7"/>
<path transform="matrix(1,0,0,-1,19.3877,23.824202)" stroke-width="1.003" stroke-linecap="round" stroke-linejoin="round" fill="none" stroke="#236ba7" d="M0 0-.023 .028C.145 .165 .275 .487 .292 .535 .132 1.129-.645 1.301-.652 1.302L-.645 1.337C-.636 1.335 .166 1.156 .328 .538L.331 .534 .328 .526C.323 .51 .189 .151 0 0Z"/>
<path transform="matrix(1,0,0,-1,22.9409,15.337301)" d="M0 0C0 0 .328-.46 .661-.696 .778-.778 1.195-.748 1.272-.607" fill="#236ba7"/>
<path transform="matrix(1,0,0,-1,22.9409,15.337301)" stroke-width="1.003" stroke-linecap="round" stroke-linejoin="round" fill="none" stroke="#236ba7" d="M0 0C0 0 .328-.46 .661-.696 .778-.778 1.195-.748 1.272-.607"/>
<path transform="matrix(1,0,0,-1,23.6782,16.082503)" d="M0 0C-.037 .01-.066 .021-.088 .036-.419 .27-.749 .729-.751 .735L-.723 .756C-.719 .752-.393 .294-.066 .063 0 .018 .182 .009 .332 .043 .429 .066 .495 .103 .519 .147L.552 .129C.512 .061 .414 .025 .338 .007 .224-.019 .092-.019 0 0" fill="#236ba7"/>
<path transform="matrix(1,0,0,-1,23.6782,16.082503)" stroke-width="1.003" stroke-linecap="round" stroke-linejoin="round" fill="none" stroke="#236ba7" d="M0 0C-.037 .01-.066 .021-.088 .036-.419 .27-.749 .729-.751 .735L-.723 .756C-.719 .752-.393 .294-.066 .063 0 .018 .182 .009 .332 .043 .429 .066 .495 .103 .519 .147L.552 .129C.512 .061 .414 .025 .338 .007 .224-.019 .092-.019 0 0Z"/>
<path transform="matrix(1,0,0,-1,23.8877,17.075102)" d="M0 0-.067-.306" fill="#236ba7"/>
<path transform="matrix(1,0,0,-1,23.8877,17.075102)" stroke-width="1.003" stroke-linecap="round" stroke-linejoin="round" fill="none" stroke="#236ba7" d="M0 0-.067-.306"/>
<path transform="matrix(1,0,0,-1,23.8032,17.376902)" d="M0 0 .068 .305 .102 .297 .036-.007Z" fill="#236ba7"/>
<path transform="matrix(1,0,0,-1,23.8032,17.376902)" stroke-width="1.003" stroke-linecap="round" stroke-linejoin="round" fill="none" stroke="#236ba7" d="M0 0 .068 .305 .102 .297 .036-.007 0 0Z"/>
<path transform="matrix(1,0,0,-1,24.7173,18.926703)" d="M0 0C0 0-.193-.203-.149-.385" fill="#236ba7"/>
<path transform="matrix(1,0,0,-1,24.7173,18.926703)" stroke-width="1.003" stroke-linecap="round" stroke-linejoin="round" fill="none" stroke="#236ba7" d="M0 0C0 0-.193-.203-.149-.385"/>
<path transform="matrix(1,0,0,-1,24.5522,19.3173)" d="M0 0C-.048 .19 .146 .396 .153 .403L.179 .377C.178 .375-.008 .181 .033 .01Z" fill="#236ba7"/>
<path transform="matrix(1,0,0,-1,24.5522,19.3173)" stroke-width="1.003" stroke-linecap="round" stroke-linejoin="round" fill="none" stroke="#236ba7" d="M0 0C-.048 .19 .146 .396 .153 .403L.179 .377C.178 .375-.008 .181 .033 .01L0 0Z"/>
<path transform="matrix(1,0,0,-1,3.5527,34.2568)" d="M0 0C.044 .121 .536 1.678 .562 2.477 .586 3.275 .663 3.113 .556 4.311 .45 5.511 .588 8.246 .619 8.725 .649 9.2 .709 10.008 .986 10.362 1.262 10.717 1.432 11.368 1.535 11.683 1.641 11.995 1.838 12.978 1.981 13.59 2.123 14.2 2.261 14.988 2.552 15.276 2.844 15.56 3.578 15.807 3.578 15.807 3.69 16.087 4.011 16.561 4.386 16.65 4.76 16.741 5.855 17.29 5.855 17.29 5.855 17.29 6.122 17.676 6.433 18.039 6.742 18.401 7.016 18.581 7.531 18.992 8.045 19.402 8.404 19.155 8.308 18.631 8.14 17.702 7.357 17.034 7.357 17.034 7.265 16.365 6.631 15.095 6.631 15.095 6.492 14.163 6.146 12.746 5.986 12.205 5.829 11.661 6.063 10.528 6.063 10.528 6.22 10.024 6.382 9.343 6.68 9.306 6.976 9.268 7.426 9.103 7.727 9.448 8.394 10.21 9.055 10.688 9.055 10.688 10.551 11.994 12.112 12.033 12.112 12.033 12.112 12.033 12.6 12.054 12.77 11.849 12.866 11.734 12.902 11.366 12.44 11.04 11.978 10.714 11.439 10.19 11.131 9.828 10.82 9.467 10.577 9.586 10.35 9.028 10.121 8.471 9.128 7.658 8.701 6.726 8.274 5.794 7.937 5.391 6.97 4.618 6.97 4.618 5.74 3.425 5.452 2.67 5.164 1.916 5.032 .808 4.938 .747" fill="#236ba7"/>
<path transform="matrix(1,0,0,-1,3.5527,34.2568)" stroke-width="1.003" stroke-linecap="round" stroke-linejoin="round" fill="none" stroke="#236ba7" d="M0 0C.044 .121 .536 1.678 .562 2.477 .586 3.275 .663 3.113 .556 4.311 .45 5.511 .588 8.246 .619 8.725 .649 9.2 .709 10.008 .986 10.362 1.262 10.717 1.432 11.368 1.535 11.683 1.641 11.995 1.838 12.978 1.981 13.59 2.123 14.2 2.261 14.988 2.552 15.276 2.844 15.56 3.578 15.807 3.578 15.807 3.69 16.087 4.011 16.561 4.386 16.65 4.76 16.741 5.855 17.29 5.855 17.29 5.855 17.29 6.122 17.676 6.433 18.039 6.742 18.401 7.016 18.581 7.531 18.992 8.045 19.402 8.404 19.155 8.308 18.631 8.14 17.702 7.357 17.034 7.357 17.034 7.265 16.365 6.631 15.095 6.631 15.095 6.492 14.163 6.146 12.746 5.986 12.205 5.829 11.661 6.063 10.528 6.063 10.528 6.22 10.024 6.382 9.343 6.68 9.306 6.976 9.268 7.426 9.103 7.727 9.448 8.394 10.21 9.055 10.688 9.055 10.688 10.551 11.994 12.112 12.033 12.112 12.033 12.112 12.033 12.6 12.054 12.77 11.849 12.866 11.734 12.902 11.366 12.44 11.04 11.978 10.714 11.439 10.19 11.131 9.828 10.82 9.467 10.577 9.586 10.35 9.028 10.121 8.471 9.128 7.658 8.701 6.726 8.274 5.794 7.937 5.391 6.97 4.618 6.97 4.618 5.74 3.425 5.452 2.67 5.164 1.916 5.032 .808 4.938 .747"/>
<path transform="matrix(1,0,0,-1,8.5005,33.525304)" d="M0 0C.046 .027 .086 .21 .165 .585 .248 .978 .361 1.515 .521 1.934 .805 2.676 2.022 3.864 2.035 3.875 3.003 4.648 3.345 5.062 3.769 5.987 4.002 6.495 4.405 6.968 4.76 7.384 5.057 7.733 5.313 8.035 5.417 8.29 5.553 8.623 5.693 8.711 5.855 8.809 5.962 8.874 6.074 8.94 6.197 9.084 6.498 9.435 7.033 9.961 7.502 10.294 7.795 10.501 7.878 10.711 7.897 10.854 7.913 10.984 7.875 11.082 7.837 11.129 7.662 11.337 7.184 11.321 7.163 11.32 7.147 11.32 5.578 11.265 4.096 9.971 4.09 9.966 3.427 9.484 2.766 8.728 2.523 8.451 2.177 8.517 1.9 8.565 1.84 8.576 1.785 8.585 1.734 8.592 1.485 8.623 1.329 9.146 1.19 9.606 1.172 9.673 1.151 9.74 1.132 9.803 1.13 9.811 .902 10.936 1.056 11.468 1.213 12.001 1.563 13.426 1.701 14.358 1.732 14.424 2.334 15.642 2.426 16.294 2.495 16.356 3.219 17.011 3.379 17.897 3.424 18.15 3.367 18.354 3.222 18.44 3.06 18.538 2.823 18.475 2.572 18.276 2.46 18.184 2.357 18.107 2.267 18.035 1.934 17.776 1.715 17.604 1.471 17.318 1.18 16.979 .924 16.613 .895 16.572 .821 16.535-.21 16.021-.566 15.937-.945 15.846-1.267 15.374-1.384 15.091-1.468 15.062-2.129 14.829-2.407 14.557-2.662 14.309-2.799 13.688-2.922 13.141-2.942 13.045-2.964 12.952-2.984 12.863-3.032 12.663-3.082 12.426-3.138 12.177-3.246 11.68-3.358 11.166-3.43 10.955-3.448 10.902-3.469 10.834-3.492 10.76-3.595 10.43-3.752 9.931-3.976 9.642-4.263 9.271-4.319 8.411-4.346 7.993-4.377 7.505-4.516 4.771-4.411 3.579-4.335 2.744-4.352 2.57-4.374 2.272-4.385 2.141-4.396 1.989-4.404 1.745-4.43 .952-4.92-.603-4.965-.726L-4.932-.737C-4.886-.616-4.393 .946-4.368 1.745-4.36 1.985-4.349 2.135-4.337 2.271-4.315 2.566-4.3 2.744-4.374 3.583-4.479 4.771-4.34 7.503-4.309 7.992-4.284 8.403-4.228 9.26-3.948 9.619-3.718 9.913-3.561 10.417-3.457 10.751-3.434 10.821-3.413 10.891-3.396 10.943-3.323 11.156-3.211 11.672-3.102 12.168-3.047 12.417-2.995 12.653-2.949 12.854-2.927 12.944-2.909 13.038-2.886 13.133-2.766 13.677-2.627 14.292-2.382 14.533-2.097 14.811-1.37 15.059-1.365 15.059L-1.356 15.062-1.354 15.07C-1.241 15.344-.928 15.812-.558 15.9-.185 15.99 .872 16.52 .916 16.541L.922 16.546C.924 16.551 1.192 16.938 1.499 17.296 1.74 17.579 1.958 17.749 2.289 18.006 2.381 18.08 2.482 18.156 2.595 18.246 2.833 18.437 3.056 18.497 3.203 18.41 3.334 18.331 3.388 18.141 3.342 17.904 3.179 16.993 2.406 16.324 2.399 16.317L2.393 16.313 2.391 16.306C2.3 15.646 1.673 14.385 1.667 14.372L1.665 14.367C1.527 13.436 1.18 12.013 1.022 11.477 .864 10.936 1.088 9.839 1.096 9.792 1.118 9.729 1.137 9.663 1.157 9.595 1.297 9.124 1.457 8.591 1.729 8.556 1.779 8.55 1.835 8.541 1.894 8.529 2.179 8.476 2.535 8.412 2.792 8.705 3.452 9.458 4.111 9.938 4.119 9.942 5.592 11.229 7.147 11.285 7.165 11.285 7.169 11.285 7.646 11.302 7.809 11.106 7.845 11.063 7.875 10.979 7.86 10.857 7.846 10.747 7.778 10.531 7.48 10.323 7.009 9.99 6.469 9.459 6.17 9.106 6.05 8.967 5.942 8.903 5.837 8.838 5.676 8.739 5.525 8.65 5.386 8.304 5.283 8.054 5.028 7.754 4.732 7.408 4.375 6.991 3.972 6.514 3.736 6.002 3.314 5.083 2.975 4.671 2.01 3.9 1.996 3.889 .775 2.695 .487 1.947 .325 1.524 .213 .986 .129 .594 .072 .314 .017 .053-.02 .03Z" fill="#236ba7"/>
<path transform="matrix(1,0,0,-1,8.5005,33.525304)" stroke-width="1.003" stroke-linecap="round" stroke-linejoin="round" fill="none" stroke="#236ba7" d="M0 0C.046 .027 .086 .21 .165 .585 .248 .978 .361 1.515 .521 1.934 .805 2.676 2.022 3.864 2.035 3.875 3.003 4.648 3.345 5.062 3.769 5.987 4.002 6.495 4.405 6.968 4.76 7.384 5.057 7.733 5.313 8.035 5.417 8.29 5.553 8.623 5.693 8.711 5.855 8.809 5.962 8.874 6.074 8.94 6.197 9.084 6.498 9.435 7.033 9.961 7.502 10.294 7.795 10.501 7.878 10.711 7.897 10.854 7.913 10.984 7.875 11.082 7.837 11.129 7.662 11.337 7.184 11.321 7.163 11.32 7.147 11.32 5.578 11.265 4.096 9.971 4.09 9.966 3.427 9.484 2.766 8.728 2.523 8.451 2.177 8.517 1.9 8.565 1.84 8.576 1.785 8.585 1.734 8.592 1.485 8.623 1.329 9.146 1.19 9.606 1.172 9.673 1.151 9.74 1.132 9.803 1.13 9.811 .902 10.936 1.056 11.468 1.213 12.001 1.563 13.426 1.701 14.358 1.732 14.424 2.334 15.642 2.426 16.294 2.495 16.356 3.219 17.011 3.379 17.897 3.424 18.15 3.367 18.354 3.222 18.44 3.06 18.538 2.823 18.475 2.572 18.276 2.46 18.184 2.357 18.107 2.267 18.035 1.934 17.776 1.715 17.604 1.471 17.318 1.18 16.979 .924 16.613 .895 16.572 .821 16.535-.21 16.021-.566 15.937-.945 15.846-1.267 15.374-1.384 15.091-1.468 15.062-2.129 14.829-2.407 14.557-2.662 14.309-2.799 13.688-2.922 13.141-2.942 13.045-2.964 12.952-2.984 12.863-3.032 12.663-3.082 12.426-3.138 12.177-3.246 11.68-3.358 11.166-3.43 10.955-3.448 10.902-3.469 10.834-3.492 10.76-3.595 10.43-3.752 9.931-3.976 9.642-4.263 9.271-4.319 8.411-4.346 7.993-4.377 7.505-4.516 4.771-4.411 3.579-4.335 2.744-4.352 2.57-4.374 2.272-4.385 2.141-4.396 1.989-4.404 1.745-4.43 .952-4.92-.603-4.965-.726L-4.932-.737C-4.886-.616-4.393 .946-4.368 1.745-4.36 1.985-4.349 2.135-4.337 2.271-4.315 2.566-4.3 2.744-4.374 3.583-4.479 4.771-4.34 7.503-4.309 7.992-4.284 8.403-4.228 9.26-3.948 9.619-3.718 9.913-3.561 10.417-3.457 10.751-3.434 10.821-3.413 10.891-3.396 10.943-3.323 11.156-3.211 11.672-3.102 12.168-3.047 12.417-2.995 12.653-2.949 12.854-2.927 12.944-2.909 13.038-2.886 13.133-2.766 13.677-2.627 14.292-2.382 14.533-2.097 14.811-1.37 15.059-1.365 15.059L-1.356 15.062-1.354 15.07C-1.241 15.344-.928 15.812-.558 15.9-.185 15.99 .872 16.52 .916 16.541L.922 16.546C.924 16.551 1.192 16.938 1.499 17.296 1.74 17.579 1.958 17.749 2.289 18.006 2.381 18.08 2.482 18.156 2.595 18.246 2.833 18.437 3.056 18.497 3.203 18.41 3.334 18.331 3.388 18.141 3.342 17.904 3.179 16.993 2.406 16.324 2.399 16.317L2.393 16.313 2.391 16.306C2.3 15.646 1.673 14.385 1.667 14.372L1.665 14.367C1.527 13.436 1.18 12.013 1.022 11.477 .864 10.936 1.088 9.839 1.096 9.792 1.118 9.729 1.137 9.663 1.157 9.595 1.297 9.124 1.457 8.591 1.729 8.556 1.779 8.55 1.835 8.541 1.894 8.529 2.179 8.476 2.535 8.412 2.792 8.705 3.452 9.458 4.111 9.938 4.119 9.942 5.592 11.229 7.147 11.285 7.165 11.285 7.169 11.285 7.646 11.302 7.809 11.106 7.845 11.063 7.875 10.979 7.86 10.857 7.846 10.747 7.778 10.531 7.48 10.323 7.009 9.99 6.469 9.459 6.17 9.106 6.05 8.967 5.942 8.903 5.837 8.838 5.676 8.739 5.525 8.65 5.386 8.304 5.283 8.054 5.028 7.754 4.732 7.408 4.375 6.991 3.972 6.514 3.736 6.002 3.314 5.083 2.975 4.671 2.01 3.9 1.996 3.889 .775 2.695 .487 1.947 .325 1.524 .213 .986 .129 .594 .072 .314 .017 .053-.02 .03L0 0Z"/>
<path transform="matrix(1,0,0,-1,6.3716,22.604403)" d="M0 0C.002 .001 .123 .245 .291 .426 .311 .445 .333 .471 .361 .5 .581 .728 1.038 1.203 1.149 1.683 1.271 2.205 1.741 3.674 1.898 4.129 2.044 4.554 2.995 5.539 3.004 5.549L2.978 5.574C2.939 5.533 2.013 4.57 1.864 4.141 1.706 3.686 1.237 2.213 1.115 1.691 1.005 1.221 .552 .751 .334 .523 .308 .496 .282 .471 .264 .449 .092 .266-.032 .017-.033 .015Z" fill="#236ba7"/>
<path transform="matrix(1,0,0,-1,6.3716,22.604403)" stroke-width="1.003" stroke-linecap="round" stroke-linejoin="round" fill="none" stroke="#236ba7" d="M0 0C.002 .001 .123 .245 .291 .426 .311 .445 .333 .471 .361 .5 .581 .728 1.038 1.203 1.149 1.683 1.271 2.205 1.741 3.674 1.898 4.129 2.044 4.554 2.995 5.539 3.004 5.549L2.978 5.574C2.939 5.533 2.013 4.57 1.864 4.141 1.706 3.686 1.237 2.213 1.115 1.691 1.005 1.221 .552 .751 .334 .523 .308 .496 .282 .471 .264 .449 .092 .266-.032 .017-.033 .015L0 0Z"/>
<path transform="matrix(1,0,0,-1,5.3047,23.1025)" d="M0 0C-.029 .275 .229 .979 .492 1.22 .738 1.446 1.095 2.362 1.349 3.089 1.54 3.634 1.753 4.404 1.756 4.412L1.721 4.422C1.719 4.415 1.506 3.645 1.316 3.102 1.062 2.377 .71 1.467 .468 1.247 .198 1.001-.068 .278-.036-.003Z" fill="#236ba7"/>
<path transform="matrix(1,0,0,-1,5.3047,23.1025)" stroke-width="1.003" stroke-linecap="round" stroke-linejoin="round" fill="none" stroke="#236ba7" d="M0 0C-.029 .275 .229 .979 .492 1.22 .738 1.446 1.095 2.362 1.349 3.089 1.54 3.634 1.753 4.404 1.756 4.412L1.721 4.422C1.719 4.415 1.506 3.645 1.316 3.102 1.062 2.377 .71 1.467 .468 1.247 .198 1.001-.068 .278-.036-.003L0 0Z"/>
<path transform="matrix(1,0,0,-1,6.2924,23.767502)" d="M0 0C-.044 .483 .04 .721 .041 .724L.007 .736C.003 .726-.081 .488-.036-.003Z" fill="#236ba7"/>
<path transform="matrix(1,0,0,-1,6.2924,23.767502)" stroke-width="1.003" stroke-linecap="round" stroke-linejoin="round" fill="none" stroke="#236ba7" d="M0 0C-.044 .483 .04 .721 .041 .724L.007 .736C.003 .726-.081 .488-.036-.003L0 0Z"/>
<path transform="matrix(1,0,0,-1,9.9458,25.541003)" d="M0 0C.743 .46 1.267 .639 1.272 .642L1.258 .675C1.255 .675 .729 .494-.018 .03Z" fill="#236ba7"/>
<path transform="matrix(1,0,0,-1,9.9458,25.541003)" stroke-width="1.003" stroke-linecap="round" stroke-linejoin="round" fill="none" stroke="#236ba7" d="M0 0C.743 .46 1.267 .639 1.272 .642L1.258 .675C1.255 .675 .729 .494-.018 .03L0 0Z"/>
<path transform="matrix(1,0,0,-1,15.4126,23.618102)" d="M0 0 .022 .028C-.147 .163-.28 .484-.298 .53-.145 1.127 .63 1.308 .636 1.309L.627 1.344C.621 1.342-.179 1.154-.336 .533V.528L-.335 .522C-.328 .508-.189 .15 0 0" fill="#236ba7"/>
<path transform="matrix(1,0,0,-1,15.4126,23.618102)" stroke-width="1.003" stroke-linecap="round" stroke-linejoin="round" fill="none" stroke="#236ba7" d="M0 0 .022 .028C-.147 .163-.28 .484-.298 .53-.145 1.127 .63 1.308 .636 1.309L.627 1.344C.621 1.342-.179 1.154-.336 .533V.528L-.335 .522C-.328 .508-.189 .15 0 0Z"/>
<path transform="matrix(1,0,0,-1,11.7671,15.170403)" d="M0 0C0 0-.322-.463-.652-.702-.767-.786-1.186-.76-1.266-.621" fill="#236ba7"/>
<path transform="matrix(1,0,0,-1,11.7671,15.170403)" stroke-width="1.003" stroke-linecap="round" stroke-linejoin="round" fill="none" stroke="#236ba7" d="M0 0C0 0-.322-.463-.652-.702-.767-.786-1.186-.76-1.266-.621"/>
<path transform="matrix(1,0,0,-1,11.0385,15.922302)" d="M0 0C.037 .008 .064 .021 .087 .035 .416 .273 .74 .739 .744 .744L.715 .764C.71 .759 .389 .298 .064 .064 0 .018-.182 .007-.332 .038-.429 .061-.496 .097-.521 .14L-.553 .124C-.515 .054-.414 .021-.338 .004-.222-.022-.092-.022 0 0" fill="#236ba7"/>
<path transform="matrix(1,0,0,-1,11.0385,15.922302)" stroke-width="1.003" stroke-linecap="round" stroke-linejoin="round" fill="none" stroke="#236ba7" d="M0 0C.037 .008 .064 .021 .087 .035 .416 .273 .74 .739 .744 .744L.715 .764C.71 .759 .389 .298 .064 .064 0 .018-.182 .007-.332 .038-.429 .061-.496 .097-.521 .14L-.553 .124C-.515 .054-.414 .021-.338 .004-.222-.022-.092-.022 0 0Z"/>
<path transform="matrix(1,0,0,-1,10.8398,16.920403)" d="M0 0 .07-.303" fill="#236ba7"/>
<path transform="matrix(1,0,0,-1,10.8398,16.920403)" stroke-width="1.003" stroke-linecap="round" stroke-linejoin="round" fill="none" stroke="#236ba7" d="M0 0 .07-.303"/>
<path transform="matrix(1,0,0,-1,10.9267,17.217202)" d="M0 0-.07 .302-.105 .294-.035-.01Z" fill="#236ba7"/>
<path transform="matrix(1,0,0,-1,10.9267,17.217202)" stroke-width="1.003" stroke-linecap="round" stroke-linejoin="round" fill="none" stroke="#236ba7" d="M0 0-.07 .302-.105 .294-.035-.01 0 0Z"/>
<path transform="matrix(1,0,0,-1,10.0283,18.778302)" d="M0 0C0 0 .198-.2 .156-.383" fill="#236ba7"/>
<path transform="matrix(1,0,0,-1,10.0283,18.778302)" stroke-width="1.003" stroke-linecap="round" stroke-linejoin="round" fill="none" stroke="#236ba7" d="M0 0C0 0 .198-.2 .156-.383"/>
<path transform="matrix(1,0,0,-1,10.2011,19.165503)" d="M0 0C.044 .19-.151 .391-.159 .4L-.185 .374C-.184 .374 .004 .179-.035 .009Z" fill="#236ba7"/>
<path transform="matrix(1,0,0,-1,10.2011,19.165503)" stroke-width="1.003" stroke-linecap="round" stroke-linejoin="round" fill="none" stroke="#236ba7" d="M0 0C.044 .19-.151 .391-.159 .4L-.185 .374C-.184 .374 .004 .179-.035 .009L0 0Z"/>
<path transform="matrix(1,0,0,-1,31.3598,34.335905)" d="M0 0C-.045 .118-.554 1.674-.587 2.473-.622 3.27-.695 3.107-.603 4.308-.508 5.508-.677 8.243-.713 8.718-.75 9.192-.818 10-1.097 10.351-1.377 10.703-1.552 11.354-1.661 11.666-1.771 11.978-1.978 12.96-2.126 13.568-2.274 14.177-2.42 14.965-2.715 15.249-3.012 15.531-3.747 15.77-3.747 15.77-3.863 16.048-4.188 16.518-4.563 16.604-4.941 16.689-6.041 17.227-6.041 17.227-6.041 17.227-6.312 17.612-6.625 17.971-6.94 18.328-7.214 18.506-7.733 18.912-8.252 19.317-8.61 19.064-8.509 18.542-8.33 17.617-7.539 16.955-7.539 16.955-7.439 16.287-6.792 15.024-6.792 15.024-6.644 14.092-6.281 12.681-6.119 12.14-5.953 11.6-6.175 10.463-6.175 10.463-6.326 9.959-6.482 9.274-6.778 9.235-7.074 9.194-7.522 9.025-7.827 9.364-8.503 10.122-9.17 10.593-9.17 10.593-10.68 11.881-12.239 11.903-12.239 11.903-12.239 11.903-12.728 11.919-12.897 11.713-12.992 11.598-13.022 11.228-12.557 10.907-12.091 10.585-11.549 10.069-11.235 9.708-10.921 9.351-10.677 9.475-10.445 8.917-10.212 8.362-9.208 7.558-8.772 6.634-8.335 5.709-7.996 5.308-7.019 4.546-7.019 4.546-5.777 3.363-5.48 2.612-5.183 1.864-5.04 .752-4.945 .695" fill="#ffffff"/>
<path transform="matrix(1,0,0,-1,26.4038,33.657205)" d="M0 0C-.045 .028-.088 .211-.171 .583-.257 .977-.375 1.51-.541 1.928-.832 2.668-2.063 3.841-2.075 3.852-3.054 4.617-3.398 5.026-3.833 5.947-4.071 6.453-4.479 6.919-4.839 7.335-5.139 7.68-5.399 7.979-5.505 8.232-5.646 8.564-5.786 8.649-5.948 8.745-6.056 8.808-6.168 8.876-6.293 9.019-6.597 9.363-7.138 9.887-7.611 10.212-7.907 10.416-7.99 10.628-8.01 10.768-8.03 10.897-7.993 10.998-7.956 11.045-7.782 11.256-7.303 11.244-7.282 11.244-7.269 11.243-5.699 11.206-4.203 9.925-4.197 9.923-3.527 9.449-2.858 8.698-2.611 8.424-2.268 8.491-1.99 8.545-1.932 8.557-1.876 8.567-1.824 8.574-1.577 8.606-1.426 9.132-1.294 9.594-1.274 9.66-1.255 9.727-1.236 9.79-1.236 9.799-1.017 10.925-1.179 11.456-1.343 11.989-1.706 13.408-1.852 14.34-1.886 14.403-2.499 15.615-2.601 16.268-2.671 16.329-3.401 16.977-3.569 17.861-3.619 18.113-3.561 18.316-3.418 18.405-3.259 18.502-3.02 18.445-2.765 18.247-2.653 18.159-2.553 18.082-2.46 18.009-2.124 17.754-1.903 17.586-1.656 17.303-1.361 16.967-1.102 16.602-1.072 16.562-.997 16.525 .038 16.024 .395 15.941 .777 15.855 1.102 15.386 1.222 15.105 1.307 15.078 1.971 14.853 2.253 14.583 2.509 14.337 2.653 13.718 2.781 13.17 2.804 13.077 2.825 12.983 2.847 12.895 2.896 12.694 2.95 12.459 3.006 12.209 3.121 11.713 3.239 11.202 3.312 10.994 3.332 10.938 3.353 10.872 3.376 10.8 3.483 10.47 3.646 9.968 3.873 9.685 4.163 9.318 4.229 8.454 4.261 8.041 4.297 7.554 4.465 4.818 4.372 3.629 4.307 2.794 4.323 2.613 4.351 2.319 4.362 2.188 4.377 2.035 4.387 1.794 4.419 1.001 4.929-.55 4.973-.67L4.939-.685C4.895-.564 4.385 .995 4.35 1.794 4.34 2.035 4.326 2.183 4.315 2.317 4.287 2.613 4.272 2.794 4.336 3.633 4.429 4.818 4.261 7.55 4.225 8.038 4.194 8.449 4.13 9.304 3.844 9.661 3.611 9.952 3.45 10.455 3.343 10.788 3.319 10.86 3.298 10.927 3.278 10.98 3.206 11.191 3.086 11.705 2.973 12.202 2.914 12.451 2.861 12.686 2.812 12.886 2.791 12.976 2.768 13.068 2.746 13.163 2.62 13.706 2.477 14.318 2.228 14.558 1.938 14.833 1.211 15.071 1.203 15.074L1.195 15.077 1.194 15.083C1.079 15.357 .759 15.822 .386 15.907 .014 15.992-1.046 16.509-1.091 16.531L-1.099 16.535C-1.102 16.54-1.373 16.925-1.684 17.28-1.928 17.559-2.148 17.727-2.48 17.981-2.574 18.053-2.676 18.129-2.789 18.22-3.031 18.408-3.253 18.465-3.398 18.375-3.53 18.295-3.581 18.104-3.535 17.866-3.359 16.957-2.579 16.297-2.572 16.291L-2.566 16.287-2.565 16.279C-2.468 15.621-1.827 14.367-1.82 14.354L-1.818 14.348C-1.669 13.418-1.307 12-1.146 11.465-.98 10.927-1.193 9.826-1.202 9.78-1.222 9.717-1.24 9.649-1.259 9.582-1.396 9.109-1.549 8.574-1.82 8.538-1.871 8.531-1.925 8.521-1.984 8.509-2.27 8.453-2.625 8.385-2.886 8.675-3.551 9.42-4.217 9.894-4.224 9.898-5.712 11.17-7.269 11.207-7.285 11.207-7.289 11.208-7.765 11.219-7.926 11.022-7.963 10.979-7.993 10.892-7.977 10.772-7.959 10.662-7.89 10.448-7.59 10.245-7.114 9.915-6.57 9.392-6.265 9.042-6.144 8.904-6.036 8.839-5.932 8.776-5.769 8.681-5.617 8.59-5.472 8.246-5.369 7.998-5.11 7.7-4.811 7.357-4.45 6.943-4.041 6.472-3.799 5.963-3.368 5.049-3.025 4.64-2.051 3.881-2.037 3.867-.801 2.687-.507 1.941-.342 1.52-.221 .984-.134 .594-.073 .315-.016 .053 .021 .03Z" fill="#3a3e41"/>
<path transform="matrix(1,0,0,-1,28.4184,22.713803)" d="M0 0C-.003 .001-.126 .243-.297 .423-.316 .444-.341 .467-.368 .495-.591 .723-1.052 1.192-1.17 1.671-1.297 2.191-1.782 3.656-1.945 4.109-2.095 4.532-3.057 5.507-3.065 5.515L-3.04 5.542C-3.001 5.501-2.063 4.552-1.911 4.123-1.748 3.668-1.262 2.201-1.134 1.679-1.02 1.21-.563 .745-.342 .522-.313 .493-.29 .467-.271 .446-.097 .265 .03 .019 .031 .015Z" fill="#3a3e41"/>
<path transform="matrix(1,0,0,-1,29.4892,23.200102)" d="M0 0C.027 .277-.239 .977-.506 1.216-.754 1.438-1.122 2.351-1.383 3.075-1.581 3.619-1.802 4.385-1.804 4.394L-1.769 4.403C-1.766 4.396-1.548 3.628-1.348 3.086-1.087 2.366-.726 1.46-.482 1.241-.209 .997 .064 .28 .036-.003Z" fill="#3a3e41"/>
<path transform="matrix(1,0,0,-1,28.5088,23.876902)" d="M0 0C.038 .483-.048 .723-.048 .723L-.015 .736C-.012 .726 .075 .49 .035-.001Z" fill="#3a3e41"/>
<path transform="matrix(1,0,0,-1,24.8735,25.6874)" d="M0 0C-.748 .452-1.273 .625-1.279 .626L-1.267 .662C-1.261 .657-.732 .484 .019 .03Z" fill="#3a3e41"/>
<path transform="matrix(1,0,0,-1,19.3877,23.824202)" d="M0 0-.023 .028C.145 .165 .275 .487 .292 .535 .132 1.129-.645 1.301-.652 1.302L-.645 1.337C-.636 1.335 .166 1.156 .328 .538L.331 .534 .328 .526C.323 .51 .189 .151 0 0" fill="#3a3e41"/>
<path transform="matrix(1,0,0,-1,22.9409,15.337301)" d="M0 0C0 0 .328-.46 .661-.696 .778-.778 1.195-.748 1.272-.607" fill="#e6e6ea"/>
<path transform="matrix(1,0,0,-1,23.6782,16.082503)" d="M0 0C-.037 .01-.066 .021-.088 .036-.419 .27-.749 .729-.751 .735L-.723 .756C-.719 .752-.393 .294-.066 .063 0 .018 .182 .009 .332 .043 .429 .066 .495 .103 .519 .147L.552 .129C.512 .061 .414 .025 .338 .007 .224-.019 .092-.019 0 0" fill="#3a3e41"/>
<path transform="matrix(1,0,0,-1,23.8877,17.075102)" d="M0 0-.067-.306" fill="#e6e6ea"/>
<path transform="matrix(1,0,0,-1,23.8032,17.376902)" d="M0 0 .068 .305 .102 .297 .036-.007Z" fill="#3a3e41"/>
<path transform="matrix(1,0,0,-1,24.7173,18.926703)" d="M0 0C0 0-.193-.203-.149-.385" fill="#e6e6ea"/>
<path transform="matrix(1,0,0,-1,24.5522,19.3173)" d="M0 0C-.048 .19 .146 .396 .153 .403L.179 .377C.178 .375-.008 .181 .033 .01Z" fill="#3a3e41"/>
<path transform="matrix(1,0,0,-1,3.5527,34.2568)" d="M0 0C.044 .121 .536 1.678 .562 2.477 .586 3.275 .663 3.113 .556 4.311 .45 5.511 .588 8.246 .619 8.725 .649 9.2 .709 10.008 .986 10.362 1.262 10.717 1.432 11.368 1.535 11.683 1.641 11.995 1.838 12.978 1.981 13.59 2.123 14.2 2.261 14.988 2.552 15.276 2.844 15.56 3.578 15.807 3.578 15.807 3.69 16.087 4.011 16.561 4.386 16.65 4.76 16.741 5.855 17.29 5.855 17.29 5.855 17.29 6.122 17.676 6.433 18.039 6.742 18.401 7.016 18.581 7.531 18.992 8.045 19.402 8.404 19.155 8.308 18.631 8.14 17.702 7.357 17.034 7.357 17.034 7.265 16.365 6.631 15.095 6.631 15.095 6.492 14.163 6.146 12.746 5.986 12.205 5.829 11.661 6.063 10.528 6.063 10.528 6.22 10.024 6.382 9.343 6.68 9.306 6.976 9.268 7.426 9.103 7.727 9.448 8.394 10.21 9.055 10.688 9.055 10.688 10.551 11.994 12.112 12.033 12.112 12.033 12.112 12.033 12.6 12.054 12.77 11.849 12.866 11.734 12.902 11.366 12.44 11.04 11.978 10.714 11.439 10.19 11.131 9.828 10.82 9.467 10.577 9.586 10.35 9.028 10.121 8.471 9.128 7.658 8.701 6.726 8.274 5.794 7.937 5.391 6.97 4.618 6.97 4.618 5.74 3.425 5.452 2.67 5.164 1.916 5.032 .808 4.938 .747" fill="#ffffff"/>
<path transform="matrix(1,0,0,-1,8.5005,33.525304)" d="M0 0C.046 .027 .086 .21 .165 .585 .248 .978 .361 1.515 .521 1.934 .805 2.676 2.022 3.864 2.035 3.875 3.003 4.648 3.345 5.062 3.769 5.987 4.002 6.495 4.405 6.968 4.76 7.384 5.057 7.733 5.313 8.035 5.417 8.29 5.553 8.623 5.693 8.711 5.855 8.809 5.962 8.874 6.074 8.94 6.197 9.084 6.498 9.435 7.033 9.961 7.502 10.294 7.795 10.501 7.878 10.711 7.897 10.854 7.913 10.984 7.875 11.082 7.837 11.129 7.662 11.337 7.184 11.321 7.163 11.32 7.147 11.32 5.578 11.265 4.096 9.971 4.09 9.966 3.427 9.484 2.766 8.728 2.523 8.451 2.177 8.517 1.9 8.565 1.84 8.576 1.785 8.585 1.734 8.592 1.485 8.623 1.329 9.146 1.19 9.606 1.172 9.673 1.151 9.74 1.132 9.803 1.13 9.811 .902 10.936 1.056 11.468 1.213 12.001 1.563 13.426 1.701 14.358 1.732 14.424 2.334 15.642 2.426 16.294 2.495 16.356 3.219 17.011 3.379 17.897 3.424 18.15 3.367 18.354 3.222 18.44 3.06 18.538 2.823 18.475 2.572 18.276 2.46 18.184 2.357 18.107 2.267 18.035 1.934 17.776 1.715 17.604 1.471 17.318 1.18 16.979 .924 16.613 .895 16.572 .821 16.535-.21 16.021-.566 15.937-.945 15.846-1.267 15.374-1.384 15.091-1.468 15.062-2.129 14.829-2.407 14.557-2.662 14.309-2.799 13.688-2.922 13.141-2.942 13.045-2.964 12.952-2.984 12.863-3.032 12.663-3.082 12.426-3.138 12.177-3.246 11.68-3.358 11.166-3.43 10.955-3.448 10.902-3.469 10.834-3.492 10.76-3.595 10.43-3.752 9.931-3.976 9.642-4.263 9.271-4.319 8.411-4.346 7.993-4.377 7.505-4.516 4.771-4.411 3.579-4.335 2.744-4.352 2.57-4.374 2.272-4.385 2.141-4.396 1.989-4.404 1.745-4.43 .952-4.92-.603-4.965-.726L-4.932-.737C-4.886-.616-4.393 .946-4.368 1.745-4.36 1.985-4.349 2.135-4.337 2.271-4.315 2.566-4.3 2.744-4.374 3.583-4.479 4.771-4.34 7.503-4.309 7.992-4.284 8.403-4.228 9.26-3.948 9.619-3.718 9.913-3.561 10.417-3.457 10.751-3.434 10.821-3.413 10.891-3.396 10.943-3.323 11.156-3.211 11.672-3.102 12.168-3.047 12.417-2.995 12.653-2.949 12.854-2.927 12.944-2.909 13.038-2.886 13.133-2.766 13.677-2.627 14.292-2.382 14.533-2.097 14.811-1.37 15.059-1.365 15.059L-1.356 15.062-1.354 15.07C-1.241 15.344-.928 15.812-.558 15.9-.185 15.99 .872 16.52 .916 16.541L.922 16.546C.924 16.551 1.192 16.938 1.499 17.296 1.74 17.579 1.958 17.749 2.289 18.006 2.381 18.08 2.482 18.156 2.595 18.246 2.833 18.437 3.056 18.497 3.203 18.41 3.334 18.331 3.388 18.141 3.342 17.904 3.179 16.993 2.406 16.324 2.399 16.317L2.393 16.313 2.391 16.306C2.3 15.646 1.673 14.385 1.667 14.372L1.665 14.367C1.527 13.436 1.18 12.013 1.022 11.477 .864 10.936 1.088 9.839 1.096 9.792 1.118 9.729 1.137 9.663 1.157 9.595 1.297 9.124 1.457 8.591 1.729 8.556 1.779 8.55 1.835 8.541 1.894 8.529 2.179 8.476 2.535 8.412 2.792 8.705 3.452 9.458 4.111 9.938 4.119 9.942 5.592 11.229 7.147 11.285 7.165 11.285 7.169 11.285 7.646 11.302 7.809 11.106 7.845 11.063 7.875 10.979 7.86 10.857 7.846 10.747 7.778 10.531 7.48 10.323 7.009 9.99 6.469 9.459 6.17 9.106 6.05 8.967 5.942 8.903 5.837 8.838 5.676 8.739 5.525 8.65 5.386 8.304 5.283 8.054 5.028 7.754 4.732 7.408 4.375 6.991 3.972 6.514 3.736 6.002 3.314 5.083 2.975 4.671 2.01 3.9 1.996 3.889 .775 2.695 .487 1.947 .325 1.524 .213 .986 .129 .594 .072 .314 .017 .053-.02 .03Z" fill="#3a3e41"/>
<path transform="matrix(1,0,0,-1,6.3716,22.604403)" d="M0 0C.002 .001 .123 .245 .291 .426 .311 .445 .333 .471 .361 .5 .581 .728 1.038 1.203 1.149 1.683 1.271 2.205 1.741 3.674 1.898 4.129 2.044 4.554 2.995 5.539 3.004 5.549L2.978 5.574C2.939 5.533 2.013 4.57 1.864 4.141 1.706 3.686 1.237 2.213 1.115 1.691 1.005 1.221 .552 .751 .334 .523 .308 .496 .282 .471 .264 .449 .092 .266-.032 .017-.033 .015Z" fill="#3a3e41"/>
<path transform="matrix(1,0,0,-1,5.3047,23.1025)" d="M0 0C-.029 .275 .229 .979 .492 1.22 .738 1.446 1.095 2.362 1.349 3.089 1.54 3.634 1.753 4.404 1.756 4.412L1.721 4.422C1.719 4.415 1.506 3.645 1.316 3.102 1.062 2.377 .71 1.467 .468 1.247 .198 1.001-.068 .278-.036-.003Z" fill="#3a3e41"/>
<path transform="matrix(1,0,0,-1,6.2924,23.767502)" d="M0 0C-.044 .483 .04 .721 .041 .724L.007 .736C.003 .726-.081 .488-.036-.003Z" fill="#3a3e41"/>
<path transform="matrix(1,0,0,-1,9.9458,25.541003)" d="M0 0C.743 .46 1.267 .639 1.272 .642L1.258 .675C1.255 .675 .729 .494-.018 .03Z" fill="#3a3e41"/>
<path transform="matrix(1,0,0,-1,15.4126,23.618102)" d="M0 0 .022 .028C-.147 .163-.28 .484-.298 .53-.145 1.127 .63 1.308 .636 1.309L.627 1.344C.621 1.342-.179 1.154-.336 .533V.528L-.335 .522C-.328 .508-.189 .15 0 0" fill="#3a3e41"/>
<path transform="matrix(1,0,0,-1,11.7671,15.170403)" d="M0 0C0 0-.322-.463-.652-.702-.767-.786-1.186-.76-1.266-.621" fill="#e6e6ea"/>
<path transform="matrix(1,0,0,-1,11.0385,15.922302)" d="M0 0C.037 .008 .064 .021 .087 .035 .416 .273 .74 .739 .744 .744L.715 .764C.71 .759 .389 .298 .064 .064 0 .018-.182 .007-.332 .038-.429 .061-.496 .097-.521 .14L-.553 .124C-.515 .054-.414 .021-.338 .004-.222-.022-.092-.022 0 0" fill="#3a3e41"/>
<path transform="matrix(1,0,0,-1,10.8398,16.920403)" d="M0 0 .07-.303" fill="#e6e6ea"/>
<path transform="matrix(1,0,0,-1,10.9267,17.217202)" d="M0 0-.07 .302-.105 .294-.035-.01Z" fill="#3a3e41"/>
<path transform="matrix(1,0,0,-1,10.0283,18.778302)" d="M0 0C0 0 .198-.2 .156-.383" fill="#e6e6ea"/>
<path transform="matrix(1,0,0,-1,10.2011,19.165503)" d="M0 0C.044 .19-.151 .391-.159 .4L-.185 .374C-.184 .374 .004 .179-.035 .009Z" fill="#3a3e41"/>
<path transform="matrix(1,0,0,-1,10.3745,1.9287033)" d="M0 0C.076 0 .143-.007 .199-.021 .255-.033 .305-.058 .348-.094 .39-.131 .427-.18 .461-.244 .495-.306 .53-.389 .563-.492L1.662-3.599C1.676-3.639 1.701-3.657 1.735-3.657H1.799C1.833-3.657 1.858-3.639 1.872-3.599L2.97-.492C3.005-.389 3.041-.306 3.074-.244 3.108-.18 3.145-.131 3.186-.094 3.228-.058 3.277-.033 3.332-.021 3.386-.007 3.452 0 3.531 0H4.094C4.277 0 4.4-.051 4.464-.152 4.526-.254 4.559-.428 4.559-.674V-4.389C4.559-4.484 4.518-4.532 4.437-4.532H3.899C3.822-4.532 3.783-4.484 3.783-4.389V-1.01C3.783-.967 3.769-.945 3.74-.945H3.693C3.658-.945 3.635-.962 3.624-.997L2.559-3.896C2.516-4.014 2.475-4.112 2.43-4.192 2.384-4.271 2.337-4.337 2.287-4.389 2.236-4.441 2.177-4.478 2.113-4.5 2.049-4.521 1.971-4.532 1.883-4.532H1.631C1.542-4.532 1.465-4.521 1.401-4.5 1.335-4.478 1.278-4.441 1.226-4.389 1.174-4.337 1.128-4.271 1.085-4.192 1.04-4.112 .998-4.014 .954-3.896L-.112-.997C-.122-.962-.145-.945-.179-.945H-.227C-.255-.945-.268-.967-.268-1.01V-4.389C-.268-4.484-.308-4.532-.386-4.532H-.925C-1.005-4.532-1.045-4.484-1.045-4.389V-.674C-1.045-.428-1.014-.254-.95-.152-.888-.051-.762 0-.575 0Z" fill="#ffffff"/>
<path transform="matrix(1,0,0,-1,19.3862,1.9287033)" d="M0 0C.081 0 .122-.048 .122-.143V-.758C.122-.853 .081-.9 0-.9H-2.305C-2.442-.9-2.556-.915-2.646-.943-2.735-.97-2.808-1.017-2.861-1.084-2.917-1.151-2.954-1.242-2.977-1.356-2.996-1.471-3.007-1.612-3.007-1.781V-1.845H-.026C.052-1.845 .09-1.893 .09-1.987V-2.498C.09-2.595 .052-2.641-.026-2.641H-3.007V-2.751C-3.007-2.919-2.996-3.062-2.977-3.175-2.954-3.29-2.917-3.381-2.861-3.447-2.808-3.515-2.735-3.562-2.646-3.589-2.556-3.618-2.442-3.631-2.305-3.631H0C.081-3.631 .122-3.679 .122-3.774V-4.389C.122-4.484 .081-4.532 0-4.532H-2.32C-2.588-4.532-2.815-4.501-3.002-4.441-3.19-4.38-3.341-4.283-3.458-4.146-3.576-4.01-3.663-3.834-3.716-3.616-3.772-3.397-3.799-3.134-3.799-2.823V-1.709C-3.799-1.398-3.772-1.135-3.716-.92-3.663-.704-3.576-.527-3.458-.392-3.341-.256-3.19-.156-3.002-.094-2.815-.032-2.588 0-2.32 0Z" fill="#ffffff"/>
<path transform="matrix(1,0,0,-1,20.9218,5.4760019)" d="M0 0C0-.056 .023-.084 .069-.084H1.8C1.955-.084 2.084-.067 2.189-.033 2.296 .002 2.38 .058 2.446 .136 2.511 .213 2.557 .318 2.585 .446 2.613 .576 2.626 .735 2.626 .925V1.638C2.626 1.827 2.613 1.987 2.585 2.117 2.557 2.247 2.511 2.35 2.446 2.427 2.38 2.504 2.296 2.561 2.189 2.596 2.084 2.63 1.955 2.647 1.8 2.647H.069C.023 2.647 0 2.617 0 2.557ZM1.82 3.547C2.106 3.547 2.35 3.511 2.554 3.441 2.758 3.369 2.925 3.26 3.055 3.11 3.185 2.962 3.281 2.772 3.342 2.541 3.404 2.309 3.436 2.037 3.436 1.721V.841C3.436 .526 3.404 .254 3.342 .022 3.281-.208 3.185-.398 3.055-.547 2.925-.696 2.758-.806 2.554-.878 2.35-.949 2.106-.985 1.82-.985H-.648C-.754-.985-.808-.92-.808-.79V3.353C-.808 3.482-.754 3.547-.648 3.547Z" fill="#ffffff"/>
<path transform="matrix(1,0,0,-1,25.708,1.9287033)" d="M0 0C.077 0 .116-.048 .116-.143V-4.389C.116-4.484 .077-4.532 0-4.532H-.571C-.652-4.532-.691-4.484-.691-4.389V-.143C-.691-.048-.652 0-.571 0Z" fill="#ffffff"/>
<path transform="matrix(1,0,0,-1,2.685,8.019001)" d="M0 0C.077 0 .116-.047 .116-.142V-1.826H2.585V-.142C2.585-.047 2.624 0 2.703 0H3.271C3.352 0 3.393-.047 3.393-.142V-4.389C3.393-4.484 3.352-4.531 3.271-4.531H2.703C2.624-4.531 2.585-4.484 2.585-4.389V-2.667H.116V-4.389C.116-4.484 .077-4.531 0-4.531H-.57C-.651-4.531-.69-4.484-.69-4.389V-.142C-.69-.047-.651 0-.57 0Z" fill="#ffffff"/>
<path transform="matrix(1,0,0,-1,10.5322,8.019001)" d="M0 0C.081 0 .12-.047 .12-.142V-.757C.12-.853 .081-.901 0-.901H-2.307C-2.444-.901-2.558-.914-2.646-.942-2.736-.971-2.808-1.018-2.864-1.084-2.917-1.151-2.957-1.242-2.977-1.357-2.998-1.471-3.008-1.612-3.008-1.78V-1.844H-.027C.05-1.844 .089-1.892 .089-1.988V-2.499C.089-2.594 .05-2.642-.027-2.642H-3.008V-2.75C-3.008-2.919-2.998-3.06-2.977-3.175-2.957-3.291-2.917-3.38-2.864-3.447-2.808-3.514-2.736-3.562-2.646-3.591-2.558-3.618-2.444-3.632-2.307-3.632H0C.081-3.632 .12-3.68 .12-3.774V-4.389C.12-4.484 .081-4.531 0-4.531H-2.323C-2.589-4.531-2.816-4.5-3.003-4.441-3.188-4.38-3.341-4.282-3.459-4.146-3.577-4.01-3.663-3.834-3.719-3.615-3.771-3.398-3.799-3.133-3.799-2.823V-1.708C-3.799-1.399-3.771-1.136-3.719-.92-3.663-.705-3.577-.528-3.459-.392-3.341-.256-3.188-.157-3.003-.094-2.816-.032-2.589 0-2.323 0Z" fill="#ffffff"/>
<path transform="matrix(1,0,0,-1,11.9409,8.019001)" d="M0 0C.076 0 .115-.047 .115-.142V-2.726C.115-2.897 .126-3.043 .15-3.156 .172-3.271 .21-3.36 .263-3.427 .316-3.495 .386-3.542 .477-3.57 .566-3.599 .681-3.612 .818-3.612H2.955C3.031-3.612 3.071-3.661 3.071-3.755V-4.389C3.071-4.484 3.031-4.531 2.955-4.531H.785C.518-4.531 .292-4.5 .106-4.441-.081-4.38-.233-4.282-.352-4.146-.469-4.01-.555-3.834-.61-3.615-.664-3.398-.692-3.133-.692-2.823V-.142C-.692-.047-.652 0-.572 0Z" fill="#ffffff"/>
<path transform="matrix(1,0,0,-1,16.2934,10.310501)" d="M0 0H2.021C2.201 0 2.327 .047 2.401 .142 2.476 .236 2.512 .381 2.512 .576V.822C2.512 1.016 2.476 1.159 2.401 1.255 2.327 1.351 2.201 1.397 2.021 1.397H.069C.022 1.397 0 1.372 0 1.32ZM2.185 2.292C2.589 2.292 2.878 2.178 3.055 1.954 3.232 1.73 3.319 1.397 3.319 .958V.479C3.319 .039 3.232-.294 3.055-.519 2.878-.743 2.589-.854 2.185-.854H0V-2.098C0-2.192-.04-2.24-.116-2.24H-.686C-.767-2.24-.808-2.192-.808-2.098V2.097C-.808 2.226-.755 2.292-.649 2.292Z" fill="#ffffff"/>
<path transform="matrix(1,0,0,-1,23.8916,8.019001)" d="M0 0C.081 0 .122-.047 .122-.142V-.757C.122-.853 .081-.901 0-.901H-2.306C-2.443-.901-2.557-.914-2.646-.942-2.735-.971-2.808-1.018-2.862-1.084-2.918-1.151-2.954-1.242-2.977-1.357-2.996-1.471-3.007-1.612-3.007-1.78V-1.844H-.026C.052-1.844 .09-1.892 .09-1.988V-2.499C.09-2.594 .052-2.642-.026-2.642H-3.007V-2.75C-3.007-2.919-2.996-3.06-2.977-3.175-2.954-3.291-2.918-3.38-2.862-3.447-2.808-3.514-2.735-3.562-2.646-3.591-2.557-3.618-2.443-3.632-2.306-3.632H0C.081-3.632 .122-3.68 .122-3.774V-4.389C.122-4.484 .081-4.531 0-4.531H-2.321C-2.588-4.531-2.816-4.5-3.001-4.441-3.189-4.38-3.341-4.282-3.458-4.146-3.576-4.01-3.663-3.834-3.716-3.615-3.772-3.398-3.799-3.133-3.799-2.823V-1.708C-3.799-1.399-3.772-1.136-3.716-.92-3.663-.705-3.576-.528-3.458-.392-3.341-.256-3.189-.157-3.001-.094-2.816-.032-2.588 0-2.321 0Z" fill="#ffffff"/>
<path transform="matrix(1,0,0,-1,25.4272,10.330502)" d="M0 0H2.021C2.201 0 2.327 .048 2.401 .143 2.476 .237 2.511 .383 2.511 .576V.848C2.511 1.042 2.476 1.187 2.401 1.282 2.327 1.377 2.201 1.423 2.021 1.423H.069C.022 1.423 0 1.398 0 1.347ZM2.185 2.312C2.589 2.312 2.878 2.198 3.055 1.974 3.232 1.75 3.319 1.417 3.319 .979V.608C3.319 .237 3.257-.056 3.134-.271 3.011-.487 2.812-.625 2.534-.686L3.435-2.057C3.454-2.081 3.459-2.112 3.451-2.155 3.445-2.199 3.416-2.22 3.367-2.22H2.686C2.641-2.22 2.608-2.213 2.591-2.201 2.574-2.188 2.556-2.167 2.538-2.136L1.705-.79H0V-2.078C0-2.172-.039-2.22-.116-2.22H-.686C-.766-2.22-.808-2.172-.808-2.078V2.117C-.808 2.246-.755 2.312-.648 2.312Z" fill="#ffffff"/>
<path transform="matrix(1,0,0,-1,33.0053,8.019001)" d="M0 0C.077 0 .115-.047 .115-.142V-.757C.115-.853 .077-.901 0-.901H-2.644C-2.746-.901-2.819-.932-2.861-.997-2.903-1.061-2.925-1.149-2.925-1.263V-1.483C-2.925-1.724-2.833-1.844-2.649-1.844H-.67C-.364-1.844-.135-1.941 .02-2.133 .176-2.325 .253-2.602 .253-2.958V-3.477C.253-3.792 .176-4.045 .025-4.24-.125-4.435-.362-4.531-.682-4.531H-3.604C-3.685-4.531-3.727-4.484-3.727-4.389V-3.774C-3.727-3.68-3.685-3.632-3.604-3.632H-.834C-.731-3.632-.661-3.6-.617-3.534-.575-3.47-.556-3.381-.556-3.269V-3.004C-.556-2.762-.646-2.642-.83-2.642H-2.808C-3.113-2.642-3.345-2.545-3.5-2.354-3.654-2.161-3.731-1.887-3.731-1.528V-1.056C-3.731-.741-3.656-.485-3.504-.291-3.353-.098-3.118 0-2.797 0Z" fill="#ffffff"/>
<path transform="matrix(1,0,0,-1,34.2881,32.8945)" d="M0 0-16.911-7.933-33.936 0Z" fill="#236ba7"/>
<path transform="matrix(1,0,0,-1,14.4668,34.5937)" d="M0 0C.242 0 .419-.072 .534-.217 .647-.367 .705-.557 .705-.796V-1.136C.705-1.403 .646-1.61 .529-1.753 .413-1.899 .24-1.973 .007-1.973H-1.504C-1.644-1.973-1.711-2.064-1.711-2.248V-2.663C-1.711-2.733-1.685-2.768-1.632-2.768H.609C.67-2.768 .701-2.804 .701-2.874V-3.309C.701-3.381 .67-3.417 .609-3.417H-1.93C-2.066-3.417-2.162-3.383-2.217-3.317-2.273-3.25-2.3-3.146-2.3-3.003V-2.248C-2.3-1.98-2.243-1.772-2.125-1.626-2.009-1.482-1.835-1.411-1.604-1.411H-.09C.046-1.411 .116-1.318 .116-1.136V-.927C.116-.842 .1-.774 .069-.725 .035-.675-.019-.649-.095-.649H-2.109C-2.167-.649-2.198-.613-2.198-.539V-.105C-2.198-.036-2.167 0-2.109 0Z" fill="#ffffff"/>
<path transform="matrix(1,0,0,-1,16.2021,36.692304)" d="M0 0C0-.131 .009-.237 .024-.323 .04-.411 .068-.479 .107-.529 .147-.579 .202-.615 .269-.638 .336-.658 .422-.669 .526-.669H1.445C1.548-.669 1.634-.658 1.701-.638 1.768-.615 1.823-.579 1.863-.529 1.903-.479 1.931-.411 1.946-.323 1.961-.237 1.971-.131 1.971 0V.783C1.971 .911 1.961 1.018 1.946 1.104 1.931 1.187 1.903 1.257 1.863 1.309 1.823 1.358 1.768 1.397 1.701 1.418 1.634 1.441 1.548 1.449 1.445 1.449H.526C.422 1.449 .336 1.441 .269 1.418 .202 1.397 .147 1.358 .107 1.309 .068 1.257 .04 1.187 .024 1.104 .009 1.018 0 .911 0 .783ZM1.445 2.099C1.646 2.099 1.817 2.077 1.958 2.029 2.099 1.98 2.214 1.906 2.304 1.806 2.392 1.701 2.457 1.57 2.497 1.407 2.539 1.244 2.558 1.046 2.558 .811V-.029C2.558-.262 2.539-.464 2.497-.627 2.457-.792 2.392-.923 2.304-1.028 2.214-1.13 2.099-1.204 1.958-1.249 1.817-1.296 1.646-1.318 1.445-1.318H.526C.324-1.318 .152-1.296 .012-1.249-.129-1.204-.243-1.13-.333-1.028-.421-.923-.487-.792-.526-.627-.569-.464-.588-.262-.588-.029V.811C-.588 1.046-.569 1.244-.526 1.407-.487 1.57-.421 1.701-.333 1.806-.243 1.906-.129 1.98 .012 2.029 .152 2.077 .324 2.099 .526 2.099Z" fill="#ffffff"/>
<path transform="matrix(1,0,0,-1,19.6655,34.5937)" d="M0 0C.132 0 .228-.032 .283-.101 .338-.164 .365-.271 .365-.413V-3.309C.365-3.381 .335-3.417 .278-3.417H-.131C-.191-3.417-.219-3.381-.219-3.309V-.75C-.219-.683-.247-.649-.302-.649H-.53C-.592-.649-.622-.613-.622-.539V-.105C-.622-.036-.592 0-.53 0Z" fill="#ffffff"/>
<path transform="matrix(1,0,0,-1,23.2046,34.5937)" d="M0 0C.083 0 .148-.027 .19-.08 .232-.137 .254-.209 .254-.297V-.633C.254-.74 .243-.82 .221-.879 .197-.939 .156-1.011 .098-1.086L-1.597-3.325C-1.623-3.357-1.647-3.383-1.67-3.397-1.692-3.409-1.726-3.417-1.769-3.417H-2.326C-2.357-3.417-2.377-3.4-2.385-3.37-2.393-3.339-2.387-3.312-2.369-3.285L-.411-.756C-.401-.74-.393-.725-.387-.714-.381-.701-.379-.688-.379-.671V-.649C-.379-.627-.392-.613-.416-.613H-2.724C-2.786-.613-2.815-.578-2.815-.506V-.105C-2.815-.036-2.786 0-2.724 0Z" fill="#ffffff"/>
</g>
</g>
</svg>
